<svg width="12" height="12" viewBox="0 0 12 12" fill="none" xmlns="http://www.w3.org/2000/svg">
<g clip-path="url(#clip0_1954_4640)">
<path d="M6.37598 7.47949H5.28711C5.29036 7.17676 5.31641 6.92285 5.36523 6.71777C5.41406 6.50944 5.49544 6.32064 5.60938 6.15137C5.72656 5.9821 5.88118 5.80306 6.07324 5.61426C6.22298 5.47103 6.35807 5.33594 6.47852 5.20898C6.59896 5.07878 6.69499 4.94206 6.7666 4.79883C6.83822 4.65234 6.87402 4.4847 6.87402 4.2959C6.87402 4.09082 6.83984 3.91667 6.77148 3.77344C6.70312 3.63021 6.60221 3.52116 6.46875 3.44629C6.33854 3.37142 6.17578 3.33398 5.98047 3.33398C5.81771 3.33398 5.66471 3.36654 5.52148 3.43164C5.37826 3.49349 5.2627 3.59115 5.1748 3.72461C5.08691 3.85482 5.03971 4.02734 5.0332 4.24219H3.85645C3.86296 3.83203 3.96061 3.48698 4.14941 3.20703C4.33822 2.92708 4.59212 2.71712 4.91113 2.57715C5.23014 2.43717 5.58659 2.36719 5.98047 2.36719C6.41667 2.36719 6.78939 2.44206 7.09863 2.5918C7.40788 2.73828 7.64388 2.95312 7.80664 3.23633C7.97266 3.51628 8.05566 3.85482 8.05566 4.25195C8.05566 4.53841 7.9987 4.79883 7.88477 5.0332C7.77083 5.26432 7.62272 5.48079 7.44043 5.68262C7.25814 5.88118 7.0612 6.07975 6.84961 6.27832C6.66732 6.44434 6.54362 6.625 6.47852 6.82031C6.41341 7.01237 6.37923 7.2321 6.37598 7.47949ZM5.18945 9.00293C5.18945 8.82715 5.24967 8.67904 5.37012 8.55859C5.49056 8.4349 5.65495 8.37305 5.86328 8.37305C6.07161 8.37305 6.236 8.4349 6.35645 8.55859C6.47689 8.67904 6.53711 8.82715 6.53711 9.00293C6.53711 9.17871 6.47689 9.32845 6.35645 9.45215C6.236 9.57259 6.07161 9.63281 5.86328 9.63281C5.65495 9.63281 5.49056 9.57259 5.37012 9.45215C5.24967 9.32845 5.18945 9.17871 5.18945 9.00293Z" fill="#00BF00"/>
<rect x="0.5" y="0.5" width="11" height="11" rx="5.5" stroke="#00BF00"/>
</g>
<defs>
<clipPath id="clip0_1954_4640">
<rect width="12" height="12" fill="white"/>
</clipPath>
</defs>
</svg>
