<svg width="13" height="13" viewBox="0 0 13 13" fill="none" xmlns="http://www.w3.org/2000/svg">
<g id="ic_error copy">
<rect id="Rectangle" x="0.5" y="0.236938" width="12" height="12" rx="6" fill="#00DA00"/>
<path id="!" fill-rule="evenodd" clip-rule="evenodd" d="M6.91295 3.80945L6.83761 7.03315H6.18157L6.10938 3.80945H6.91295ZM6.84075 8.30756C6.76542 8.38499 6.65869 8.4237 6.52058 8.4237C6.38246 8.4237 6.27574 8.38499 6.2004 8.30756C6.12507 8.23013 6.0874 8.13387 6.0874 8.01878C6.0874 7.8995 6.12612 7.80062 6.20354 7.72215C6.28097 7.64367 6.38665 7.60443 6.52058 7.60443C6.65451 7.60443 6.76018 7.64367 6.83761 7.72215C6.91504 7.80062 6.95375 7.8995 6.95375 8.01878C6.95375 8.13387 6.91609 8.23013 6.84075 8.30756Z" fill="white"/>
</g>
</svg>
