<svg width="20" height="20" viewBox="0 0 20 20" xmlns="http://www.w3.org/2000/svg">
    <g fill="none" fill-rule="evenodd">
        <rect fill="#B39C7D" width="20" height="20" rx="10"/>
        <path d="m10.562 11.327.126-5.373h-1.34l.121 5.373h1.093zm-.528 2.318c.23 0 .408-.065.534-.194a.663.663 0 0 0 .188-.481.675.675 0 0 0-.194-.495c-.129-.13-.305-.196-.528-.196-.223 0-.4.066-.528.196a.675.675 0 0 0-.194.495c0 .192.063.352.188.481.126.13.304.194.534.194z" fill="#FFF" fill-rule="nonzero"/>
    </g>
</svg>
