<svg width="32" height="32" viewBox="0 0 32 32" fill="none" xmlns="http://www.w3.org/2000/svg">
<circle cx="16" cy="16" r="16" fill="#333333" fill-opacity="0.1"/>
<path d="M7.42509 16.1346L11.5215 17.6272L13.107 22.6053C13.2084 22.9241 13.6078 23.042 13.8729 22.8304L16.1562 21.0131C16.3956 20.8227 16.7365 20.8132 16.9866 20.9905L21.105 23.9096C21.3886 24.1108 21.7903 23.9591 21.8614 23.6246L24.8784 9.457C24.956 9.0916 24.5883 8.78678 24.2319 8.92134L7.42029 15.2528C7.00542 15.409 7.00903 15.9824 7.42509 16.1346ZM12.8515 16.8327L20.8573 12.0189C21.0012 11.9327 21.1492 12.1226 21.0256 12.2345L14.4185 18.2303C14.1863 18.4414 14.0365 18.7238 13.994 19.0304L13.769 20.6587C13.7392 20.8761 13.4263 20.8977 13.3649 20.6873L12.4993 17.718C12.4002 17.3793 12.5446 17.0176 12.8515 16.8327Z" fill="white"/>
</svg>
