<svg width="32" height="32" viewBox="0 0 32 32" fill="none" xmlns="http://www.w3.org/2000/svg">
<circle cx="16" cy="16" r="16" fill="#333333" fill-opacity="0.1"/>
<path d="M13.4806 10.3703C13.4806 10.265 13.4959 10.0376 13.5265 9.68964C13.5594 9.34091 13.6971 8.97609 13.9443 8.593C14.1891 8.21137 14.5862 7.86849 15.1387 7.56509C15.6888 7.26315 16.4838 7.11108 17.5214 7.11108H20.4443V10.1546H18.3042C18.0922 10.1546 17.8948 10.2306 17.7165 10.3805C17.5398 10.5304 17.4487 10.673 17.4487 10.8053V12.6988H20.4435C20.4122 13.0695 20.3777 13.4299 20.338 13.7779L20.2194 14.6976C20.1719 15.0083 20.1237 15.2964 20.0763 15.5617H17.4273V24H13.4806V15.561H11.5554V12.6988H13.4806V10.3703Z" fill="white"/>
</svg>
