<svg width="32" height="32" viewBox="0 0 32 32" fill="none" xmlns="http://www.w3.org/2000/svg">
<circle cx="16" cy="16" r="16" fill="#333333" fill-opacity="0.1"/>
<path d="M15.4239 21.4867C15.5026 21.4868 15.5804 21.5028 15.653 21.5338C15.7257 21.5648 15.7916 21.6101 15.8471 21.6673C15.9027 21.7244 15.9467 21.7922 15.9767 21.8668C16.0067 21.9414 16.0221 22.0213 16.0219 22.1019C16.0218 22.1826 16.0062 22.2625 15.976 22.337C15.9458 22.4115 15.9016 22.4791 15.8459 22.5361C15.7903 22.5931 15.7242 22.6382 15.6515 22.669C15.5788 22.6997 15.5009 22.7155 15.4222 22.7154C15.2634 22.7152 15.1112 22.6502 14.999 22.5349C14.8869 22.4195 14.824 22.2631 14.8242 22.1002C14.8244 21.9373 14.8878 21.7811 15.0002 21.666C15.1127 21.551 15.2651 21.4865 15.4239 21.4867ZM24.8149 17.6879C24.7363 17.6879 24.6584 17.6719 24.5858 17.641C24.5131 17.6101 24.4471 17.5648 24.3916 17.5077C24.336 17.4506 24.2919 17.3828 24.2619 17.3083C24.2318 17.2337 24.2164 17.1538 24.2165 17.0732C24.2165 16.9925 24.2321 16.9126 24.2622 16.8381C24.2924 16.7636 24.3365 16.6959 24.3922 16.6389C24.4478 16.5819 24.5139 16.5367 24.5865 16.5058C24.6592 16.475 24.7371 16.4592 24.8158 16.4592C24.9746 16.4594 25.1269 16.5242 25.2391 16.6395C25.3513 16.7548 25.4143 16.9111 25.4142 17.074C25.4141 17.237 25.3509 17.3932 25.2385 17.5083C25.1261 17.6234 24.9737 17.688 24.8149 17.6879ZM24.8149 15.1746C24.3239 15.1751 23.8531 15.3754 23.5059 15.7316C23.1587 16.0878 22.9634 16.5707 22.9629 17.0745C22.9629 17.2781 22.9962 17.4808 23.0609 17.6783L16.9437 21.0192C16.774 20.7665 16.5471 20.56 16.2823 20.4173C16.0176 20.2747 15.723 20.2002 15.4239 20.2004C14.7177 20.2004 14.0746 20.6155 13.7628 21.263L8.26741 18.29C7.68644 17.9772 7.25199 16.9967 7.29799 16.1036C7.32184 15.6378 7.47859 15.276 7.71796 15.1362C7.86959 15.0488 8.05189 15.0558 8.24612 15.1598L8.2819 15.1799C9.73859 15.9664 14.5039 18.5417 14.705 18.637C15.0142 18.7847 15.1863 18.8441 15.7144 18.5872L25.5654 13.3316C25.7102 13.2757 25.8789 13.1332 25.8789 12.9174C25.8789 12.6185 25.5773 12.5005 25.5765 12.5005C25.0159 12.2253 24.1547 11.8119 23.3148 11.4082C21.519 10.5456 19.4839 9.56864 18.5903 9.088C17.8185 8.67378 17.1975 9.02333 17.0868 9.09325L16.8721 9.20248C12.8496 11.243 7.46581 13.9783 7.15914 14.1697C6.61139 14.5122 6.27149 15.1947 6.2272 16.0415C6.15905 17.3847 6.82606 18.7855 7.781 19.2985L13.5924 22.3728C13.6564 22.8244 13.8767 23.2373 14.213 23.5361C14.5493 23.8349 14.9791 23.9995 15.4239 24C15.9098 23.9992 16.3759 23.8028 16.7221 23.4531C17.0682 23.1033 17.2668 22.6282 17.275 22.1299L23.676 18.5706C23.9997 18.831 24.4026 18.9734 24.8149 18.9734C25.3059 18.973 25.7767 18.7727 26.1239 18.4165C26.4711 18.0603 26.6664 17.5773 26.6669 17.0736C26.6664 16.5699 26.4711 16.0869 26.1239 15.7307C25.7767 15.3745 25.3059 15.1742 24.8149 15.1738" fill="white"/>
</svg>
