<svg width="32" height="32" viewBox="0 0 32 32" fill="none" xmlns="http://www.w3.org/2000/svg">
<circle cx="16" cy="16" r="16" fill="#333333" fill-opacity="0.1"/>
<path d="M9.21953 11.7902C9.23042 11.682 9.21583 11.5728 9.17694 11.4712C9.13804 11.3697 9.07591 11.2786 8.99553 11.2054L7.33508 9.19025V8.88892H12.4889L16.4729 17.6934L19.9751 8.88892H24.8889V9.19025L23.4693 10.56C23.4092 10.6065 23.3627 10.6684 23.335 10.7391C23.3073 10.8099 23.2994 10.8869 23.312 10.9618V21.0365C23.2994 21.1114 23.3073 21.1884 23.335 21.2591C23.3627 21.3299 23.4092 21.3918 23.4693 21.4382L24.856 22.8089V23.1111H17.8844V22.8098L19.32 21.4054C19.4613 21.2631 19.4613 21.2214 19.4613 21.0045V12.8605L15.4684 23.0774H14.9297L10.2809 12.8605V19.7085C10.2426 19.9965 10.3378 20.2862 10.5386 20.4942L12.4062 22.7769V23.0774H7.11108V22.7769L8.97775 20.4942C9.07652 20.3912 9.14982 20.2665 9.1918 20.13C9.23378 19.9936 9.24327 19.8492 9.21953 19.7085V11.7902Z" fill="white"/>
</svg>
