<svg width="32" height="32" viewBox="0 0 32 32" fill="none" xmlns="http://www.w3.org/2000/svg">
<circle cx="16" cy="16" r="16" fill="#333333" fill-opacity="0.1"/>
<path d="M22.7878 10.08C21.522 9.52358 20.1684 9.11918 18.7534 8.88892C18.5796 9.18411 18.3765 9.58116 18.2366 9.897C16.7323 9.68447 15.2419 9.68447 13.7653 9.897C13.6253 9.58116 13.4177 9.18411 13.2423 8.88892C11.8257 9.11918 10.4707 9.52507 9.20479 10.083C6.65153 13.7079 5.95938 17.2428 6.30546 20.7275C7.99891 21.9156 9.64008 22.6374 11.2535 23.1097C11.6519 22.5946 12.0072 22.047 12.3133 21.4699C11.7304 21.2618 11.172 21.005 10.6445 20.7068C10.7844 20.6094 10.9213 20.5076 11.0536 20.4028C14.2713 21.8167 17.7674 21.8167 20.9467 20.4028C21.0805 20.5076 21.2174 20.6094 21.3558 20.7068C20.8267 21.0064 20.2669 21.2633 19.6839 21.4714C19.99 22.047 20.3438 22.5961 20.7437 23.1111C22.3587 22.6388 24.0014 21.9171 25.6949 20.7275C26.1009 16.6878 25.0012 13.1854 22.7878 10.08ZM12.7517 18.5844C11.7857 18.5844 10.9936 17.7372 10.9936 16.7055C10.9936 15.6739 11.7688 14.8252 12.7517 14.8252C13.7345 14.8252 14.5266 15.6724 14.5097 16.7055C14.5113 17.7372 13.7345 18.5844 12.7517 18.5844ZM19.2486 18.5844C18.2827 18.5844 17.4906 17.7372 17.4906 16.7055C17.4906 15.6739 18.2658 14.8252 19.2486 14.8252C20.2315 14.8252 21.0236 15.6724 21.0067 16.7055C21.0067 17.7372 20.2315 18.5844 19.2486 18.5844Z" fill="white"/>
</svg>
