<svg xmlns="http://www.w3.org/2000/svg" xmlns:xlink="http://www.w3.org/1999/xlink" width="180" height="160" viewBox="0 0 180 160">
    <defs>
        <rect id="2z3o85tyja" width="180" height="160" x="0" y="0" rx="2"/>
        <path id="a49cgrhvxc" d="M62 109.853L117.927 109.853 117.927 54.125 62 54.125z"/>
    </defs>
    <g fill="none" fill-rule="evenodd">
        <g>
            <g transform="translate(-100.000000, -552.000000) translate(100.000000, 552.000000)">
                <mask id="9zxyajugxb" fill="#fff">
                    <use xlink:href="#2z3o85tyja"/>
                </mask>
                <use fill="#FFF" xlink:href="#2z3o85tyja"/>
                <path fill="#FFD900" d="M0 0H180V130H0z" mask="url(#9zxyajugxb)"/>
                <g fill="#171B1D" mask="url(#9zxyajugxb)">
                    <g>
                        <path d="M44.21 5.942l-.056-.27c-.593-2.838-3.016-4.581-6.362-4.581H7.689c-3.347 0-5.794 1.763-6.386 4.6l-.056.271c-.106.619-.159 1.235-.156 1.987v7.94c.004.987.104 1.692.105 1.699l.004.03c.395 3.265 2.82 5.215 6.489 5.215H29.45c.19 0 .344-.154.344-.344V9.63v-.002c0-.19-.154-.344-.344-.344h-.001-1.252-.002-.002c-.19 0-.344.153-.344.343v11.271H8.176c-3.259 0-5.129-1.988-5.131-4.94l.002-8.027c0-2.979 1.87-4.898 5.129-4.898h29.132c3.26 0 5.107 1.899 5.107 4.877l.002 8.027c-.002 2.953-1.853 4.95-5.11 4.95l-.667.01-.795.004h-.374c-.19 0-.344.154-.344.344V22.484c0 .19.153.344.343.344h.25l.623-.001.353-.004h1.096c3.669 0 6.07-1.96 6.465-5.226l.004-.03c0-.006.101-.711.106-1.699v-7.94c.002-.751-.05-1.367-.156-1.986" transform="translate(68.000000, 20.000000) translate(22.728218, 11.961818) rotate(1.000000) translate(-22.728218, -11.961818)"/>
                        <path d="M19.102 15.116c0 1.301.813 2.185 2.027 2.185h.542c.192 0 .347-.155.347-.347v-1.086-.002c0-.088-.033-.177-.1-.244-.068-.068-.157-.101-.245-.1h-.626v-8.69-.002c0-.19-.154-.344-.343-.344h-.002-1.253-.002-.002c-.19 0-.343.154-.343.344v8.286" transform="translate(68.000000, 20.000000) translate(20.560119, 11.893655) rotate(1.000000) translate(-20.560119, -11.893655)"/>
                        <path d="M23.446 10.369v4.833c0 1.3.815 2.175 2.03 2.175H26c.19 0 .344-.154.344-.344V15.943v-.002c0-.045-.009-.09-.027-.133-.017-.04-.04-.078-.073-.111-.068-.068-.156-.1-.245-.1h-.61v-5.225-.003c0-.19-.154-.344-.344-.344h-1.255-.002c-.19 0-.343.154-.343.344" transform="translate(68.000000, 20.000000) translate(24.895487, 13.700866) rotate(1.000000) translate(-24.895487, -13.700866)"/>
                        <path d="M23.898 8.46H25.154c.143 0 .265-.086.317-.209.018-.041.028-.086.028-.134v-1.22c0-.047-.01-.092-.027-.134-.052-.122-.175-.209-.318-.209H23.9h-.002c-.19 0-.344.152-.344.34V8.117c0 .041.01.08.023.116.048.132.172.227.32.227" transform="translate(68.000000, 20.000000) translate(24.525712, 7.506890) rotate(1.000000) translate(-24.525712, -7.506890)"/>
                        <path d="M17.612 6.867c.007-.014.01-.028.015-.042.007-.023.012-.047.014-.07.002-.013-.004-.096-.008-.113-.01-.041-.028-.076-.049-.112l-.022-.034c-.015-.016-.031-.03-.049-.043-.014-.011-.03-.022-.045-.03-.017-.01-.032-.018-.05-.025-.033-.012-.117-.022-.119-.022h-1.434c-.012 0-.038 0-.05.003-.033.007-.05.01-.082.023-.042.018-.08.043-.112.075l-4.41 3.79c-.486.485-.53 1.255-.1 1.791l4.47 4.982.021.02.015.016c.028.026.06.048.095.063l.018.007c.038.014.077.023.118.024H17.321l.008-.002c.037 0 .072-.009.106-.02.014-.006.027-.012.04-.02.023-.01.043-.025.062-.04.011-.01.023-.018.033-.029.024-.025.044-.053.06-.085l.001-.005c.006-.011.008-.023.011-.034.01-.03.016-.06.018-.09l.001-.032c-.002-.074-.025-.147-.073-.206l-4.753-5.444 4.71-4.195c.03-.03.05-.065.067-.101" transform="translate(68.000000, 20.000000) translate(14.238467, 11.772862) rotate(1.000000) translate(-14.238467, -11.772862)"/>
                        <path d="M9.869 6.615c0-.19-.154-.343-.344-.343H8.268c-.043 0-.082.01-.12.024-.011.004-.021.01-.032.015-.026.014-.05.03-.071.049l-.027.024c-.025.027-.046.057-.062.092 0 .002-.003.004-.004.006-.018.042-.028.088-.028.136V16.73c0 .048.01.094.028.136.052.124.174.211.317.211h1.256c.19 0 .344-.154.344-.344V6.617v-.003" transform="translate(68.000000, 20.000000) translate(8.896716, 11.674299) rotate(1.000000) translate(-8.896716, -11.674299)"/>
                        <path d="M37.428 14.088l.015-.064.012-.067c.151-.883.028-1.761.024-1.79-.2-1.655-1.46-2.683-3.289-2.683h-3.122c-.096 0-.182.038-.245.1-.062.064-.101.15-.101.246v1.233c0 .048.01.094.027.136.035.082.101.148.184.183.042.017.087.028.135.028h2.912c1.156 0 1.743.523 1.743 1.534v.035c0 1.034-.587 1.558-1.743 1.558h-2.912c-.017 0-.032.007-.049.01-.028.004-.057.006-.083.017-.036.015-.068.038-.096.063-.006.005-.012.007-.017.012-.005.005-.007.012-.012.017-.025.029-.048.06-.063.095-.01.025-.011.051-.015.077-.003.02-.011.036-.011.056v1.235c0 .19.154.344.343.344h3.165c1.691 0 2.893-.916 3.198-2.375" transform="translate(68.000000, 20.000000) translate(34.125804, 12.973152) rotate(1.000000) translate(-34.125804, -12.973152)"/>
                    </g>
                </g>
                <path fill="#FEFEFE" d="M64.542 54.125h50.843c1.404 0 2.542 1.134 2.542 2.533v50.662c0 1.399-1.138 2.533-2.542 2.533H64.542c-1.404 0-2.542-1.134-2.542-2.533V56.658c0-1.399 1.138-2.533 2.542-2.533" mask="url(#9zxyajugxb)"/>
                <mask id="wml740wjzd" fill="#fff">
                    <use xlink:href="#a49cgrhvxc"/>
                </mask>
                <path fill="#1D1D1B" d="M77.211 90.789L79.172 90.789 79.172 88.835 77.211 88.835zM77.211 75.148L79.172 75.148 79.172 73.193 77.211 73.193zM83.095 67.329L83.095 61.473 85.056 61.473 85.056 59.519 83.095 59.519 83.095 61.473 81.134 61.473 81.134 67.336 83.095 67.336 83.095 69.283 85.056 69.283 85.056 67.329zM92.904 57.555L88.98 57.555 88.98 59.509 88.98 61.473 87.019 61.473 87.019 65.376 87.019 67.329 87.019 67.336 88.98 67.336 88.98 67.329 92.904 67.329 92.904 65.376 88.98 65.376 88.98 63.428 90.942 63.428 90.942 59.509 92.904 59.509zM81.133 59.509L83.094 59.509 83.094 57.555 81.133 57.555zM94.885 106.424L96.847 106.424 96.847 104.47 94.885 104.47zM94.885 104.47L94.885 102.516 96.847 102.516 96.847 100.561 98.801 100.561 98.801 98.607 96.847 98.607 96.847 96.653 94.885 96.653 94.885 100.561 90.942 100.561 87.019 100.561 87.019 102.516 85.057 102.516 85.057 104.47 87.019 104.47 87.019 106.424 90.942 106.424 90.942 104.47zM100.75 71.244L102.717 71.244 102.717 69.29 100.75 69.29zM112.514 73.199L114.481 73.199 114.481 71.242 112.514 71.242zM65.441 90.789L67.402 90.789 67.402 88.835 65.441 88.835zM69.364 81.017L67.403 81.017 67.403 79.064 65.441 79.064 65.441 82.971 67.403 82.971 67.403 84.924 65.441 84.924 65.441 86.878 67.403 86.878 67.403 88.835 69.364 88.835 69.364 90.789 75.249 90.789 75.249 88.835 73.288 88.835 73.288 84.926 73.288 84.924 69.364 84.924z" mask="url(#wml740wjzd)"/>
                <path fill="#1D1D1B" d="M110.563 59.518v-.01h-1.967v-1.955h-1.967v1.955h-1.956v-1.952h-9.808v1.953h1.962v3.918h-1.962v11.72h1.962v1.962h-3.924v-1.961h-1.961v3.911H88.98v-3.911h-1.961v1.957h-5.885v1.954h3.923v1.956H77.21v1.953h-1.961V79.06h3.923v-1.954H75.25v-3.911h-1.962v5.865h-1.96v-3.911h-1.963v-1.954h-3.922v1.954h3.922v5.867h1.962v1.956h1.961v1.952h1.962v1.957h9.808v3.908h-1.962v-1.953h-1.961v1.954h1.96v1.954h-1.96v1.954h1.96v3.91h-1.96v7.817h1.96v-5.863h1.963v-5.864h1.962v3.909h5.884v-1.954h1.982l-.02-1.955v-1.954h1.975v1.935H98.8v-3.89h1.948v-.019h.006v-1.945h1.956V86.87v.02h1.972v1.95h1.962v1.949h1.918v.001h1.961v-.001h2v.001h1.962v-9.773h-1.961v-3.908h-1.962v1.954h-1.908v1.949h1.908v3.92h1.962v3.903h-2V86.89h-1.908v-1.954h-3.955v-1.965h-1.96v3.9h-1.947v-1.945h-1.962v1.944h-.005v1.954h.005v.011H96.84v1.953H92.903v3.909h-1.961v-1.954H88.98v1.954h-1.961v-1.954h1.96v-1.954h1.963v-1.954h1.961V86.89h1.962v1.934h1.962v-5.842h-3.924V79.065h3.924v3.906h1.961v-1.948h3.928v-1.958h-1.967v-1.956h-1.96v-1.961h3.927v3.917h1.962v-3.917h1.959v-1.954h3.926v-1.952h1.95v-1.959h-1.95v-1.947h1.95v1.947h1.968V57.556h-1.967v3.914h-1.951v-1.952zm-3.918 29.317h1.918V86.89h-1.918v1.945zm-23.549 5.843h1.961v-1.935h-1.96v1.935zm-5.886-9.752h3.924v-1.958H77.21v1.958zm5.885 0h1.961v-1.958h-1.961v1.958zm5.885-3.91V82.97h1.962V84.936h1.961v1.945h-1.961v-1.955h-3.923v-3.91h1.96zm17.657-11.726h1.959v-1.954h-1.96v1.954zm-1.966-1.954v5.858h-5.883v-5.858h5.883zm-5.883-1.955h1.961V59.51h-1.96v5.872zm11.775 0h1.95v-1.96h-1.95v1.96zm-3.934-1.964h.005v.004h1.962v1.96h-5.88V59.51h1.954v1.954h1.96v1.954z" mask="url(#wml740wjzd)"/>
                <path fill="#1D1D1B" d="M92.904 63.427L94.865 63.427 94.865 59.519 92.904 59.519zM83.095 71.24L81.134 71.24 81.134 73.194 81.134 75.148 79.172 75.148 79.172 77.102 81.134 77.102 81.134 75.148 85.056 75.148 85.056 73.194 92.903 73.194 92.903 69.282 85.056 69.282 85.056 73.194 83.095 73.194zM79.172 59.51v-1.955h-13.73v13.682h13.73V59.509zm-11.77 9.773h9.81v-9.774h-9.81v9.774z" mask="url(#wml740wjzd)"/>
                <path fill="#1D1D1B" d="M69.365 67.335L75.25 67.335 75.25 61.472 69.365 61.472zM79.172 94.697v-1.954h-13.73v13.682h13.73V94.697zm-11.77 9.774h9.81v-9.774h-9.81v9.774z" mask="url(#wml740wjzd)"/>
                <path fill="#1D1D1B" d="M69.365 102.515L75.25 102.515 75.25 96.652 69.365 96.652zM106.694 79.06L108.656 79.06 108.656 77.111 106.694 77.111zM100.755 94.697v11.728h13.731V92.743h-13.731v1.954zm1.961 9.774h9.808v-9.774h-9.808v9.774z" mask="url(#wml740wjzd)"/>
                <path fill="#1D1D1B" d="M104.678 102.515L110.563 102.515 110.563 96.652 104.678 96.652z" mask="url(#wml740wjzd)"/>
            </g>
        </g>
    </g>
</svg>
