<svg width="19" height="22" viewBox="0 0 19 22" fill="none" xmlns="http://www.w3.org/2000/svg">
<path d="M3.13588 16.6444H17.2476C17.7682 16.6444 18.1884 16.2242 18.1884 15.7036V1.90566C18.1884 1.3852 17.7682 0.964844 17.2476 0.964844H3.13588C1.40493 0.964844 0 2.36977 0 4.10073V17.8987C0 19.6296 1.40493 21.0345 3.13588 21.0345L17.2476 21.0348C17.7682 21.0348 18.1884 20.6146 18.1884 20.094C18.1884 19.5734 17.7682 19.1532 17.2476 19.1532H3.13588C2.44601 19.1532 1.88152 18.5887 1.88152 17.8988C1.88152 17.209 2.44585 16.6445 3.13588 16.6445V16.6444ZM9.75897 13.5462C9.5833 13.7219 9.33877 13.8221 9.09422 13.8221C8.84968 13.8221 8.60498 13.7217 8.42948 13.5462C8.25381 13.3705 8.1534 13.1322 8.1534 12.8813C8.1534 12.6368 8.25381 12.3921 8.42933 12.2165C8.78052 11.8654 9.40777 11.8654 9.75897 12.2165C9.93464 12.3922 10.0349 12.6368 10.0349 12.8813C10.035 13.1322 9.93464 13.3705 9.75897 13.5462H9.75897ZM7.28158 4.44569C7.92135 3.91258 8.768 3.68677 9.59591 3.83105C10.7374 4.03171 11.672 4.96626 11.8726 6.10776C12.0795 7.30561 11.5152 8.49737 10.4552 9.08059C10.198 9.22487 10.035 9.54469 10.035 9.9085V10.059C10.035 10.5796 9.6148 10.9999 9.09418 10.9999C8.57357 10.9999 8.15337 10.5796 8.15337 10.059V9.9085C8.15337 8.85478 8.68647 7.90772 9.54576 7.43736C9.82169 7.28683 10.104 6.92939 10.0161 6.43391C9.95335 6.06382 9.63979 5.75027 9.27609 5.68748C8.98127 5.6311 8.70536 5.70622 8.49204 5.88814C8.27889 6.07005 8.15335 6.33332 8.15335 6.60939C8.15335 7.13001 7.73314 7.55021 7.21253 7.55021C6.69191 7.55021 6.27171 7.13001 6.27171 6.60939C6.27186 5.77523 6.64194 4.98494 7.28157 4.44559L7.28158 4.44569Z" fill="#B39C7D"/>
</svg>
