<svg width="20" height="20" viewBox="0 0 20 20" fill="none" xmlns="http://www.w3.org/2000/svg">
    <path d="M10.6 12.036H9.044c.005-.416.042-.766.112-1.048.07-.287.186-.547.349-.78.167-.233.388-.48.662-.739.214-.197.407-.383.58-.558.172-.179.309-.367.411-.564.103-.202.154-.433.154-.692 0-.283-.05-.522-.147-.72a1.007 1.007 0 0 0-.432-.45c-.187-.103-.419-.154-.698-.154-.233 0-.451.044-.656.134a1.1 1.1 0 0 0-.495.403c-.126.18-.193.417-.203.713H7c.01-.565.149-1.04.419-1.425a2.47 2.47 0 0 1 1.088-.867A3.888 3.888 0 0 1 10.035 5c.623 0 1.156.103 1.598.31.441.2.779.496 1.011.886.237.386.356.851.356 1.398 0 .394-.081.753-.244 1.075a3.908 3.908 0 0 1-.635.894c-.26.273-.542.547-.844.82-.26.229-.438.477-.53.746a2.847 2.847 0 0 0-.147.907zm-1.695 2.097c0-.242.086-.446.258-.611.172-.17.407-.256.704-.256.298 0 .533.085.705.255.172.166.258.37.258.612a.837.837 0 0 1-.258.618c-.172.166-.407.249-.705.249-.297 0-.532-.083-.704-.249a.837.837 0 0 1-.258-.618z" fill="#DEE3EB"/>
    <path fill-rule="evenodd" clip-rule="evenodd" d="M1.667 10a8.333 8.333 0 1 0 16.666 0 8.333 8.333 0 0 0-16.666 0zM10 0C4.477 0 0 4.477 0 10s4.477 10 10 10 10-4.477 10-10S15.523 0 10 0z" fill="#DEE3EB"/>
</svg>
