<svg width="16" height="24" viewBox="0 0 16 24" fill="none" xmlns="http://www.w3.org/2000/svg">
<path d="M1.6 11.96C1.6 10.096 2.416 8.424 3.696 7.256L4.74645 8.30645C5.06143 8.62143 5.6 8.39835 5.6 7.95289V4.36H2.00711C1.56165 4.36 1.33857 4.89857 1.65355 5.21355L2.56 6.12C0.992 7.576 0 9.648 0 11.96C0 16.112 3.16 19.52 7.2 19.92V18.304C4.048 17.912 1.6 15.216 1.6 11.96ZM16 11.96C16 7.808 12.84 4.4 8.8 4V5.616C11.952 6.008 14.4 8.704 14.4 11.96C14.4 13.824 13.584 15.496 12.304 16.664L11.2536 15.6136C10.9386 15.2986 10.4 15.5217 10.4 15.9671V19.56H13.9929C14.4383 19.56 14.6614 19.0214 14.3464 18.7064L13.44 17.8C15.008 16.344 16 14.272 16 11.96Z" fill="#828DA9"/>
<path d="M7.484 15.918V14.991C6.728 14.928 6.017 14.649 5.477 14.073L6.188 13.209C6.539 13.569 7.025 13.821 7.484 13.902V12.147L7.016 11.967C6.395 11.679 5.702 11.202 5.702 10.275C5.702 9.357 6.404 8.646 7.484 8.502V7.557H8.321V8.493C8.897 8.574 9.455 8.799 9.896 9.24L9.221 10.023C8.96 9.78 8.654 9.618 8.321 9.546V11.292L8.825 11.481C9.572 11.814 10.148 12.192 10.148 13.092C10.148 14.136 9.41 14.766 8.321 14.955V15.918H7.484ZM6.845 10.23C6.845 10.518 7.115 10.797 7.484 10.932V9.555C7.115 9.654 6.845 9.906 6.845 10.23ZM9.005 13.182C9.005 12.822 8.753 12.687 8.321 12.498V13.866C8.69 13.767 9.005 13.623 9.005 13.182Z" fill="#828DA9"/>
</svg>
