<svg width="327" height="143" viewBox="0 0 327 143" fill="none" xmlns="http://www.w3.org/2000/svg">
<rect x="1.09007" y="42.946" width="325.692" height="0.436" stroke="#CCCCCC" stroke-width="0.436" stroke-linecap="round" stroke-dasharray="6 6"/>
<rect x="1.09007" y="102.242" width="325.692" height="0.436" stroke="#CCCCCC" stroke-width="0.436" stroke-linecap="round" stroke-dasharray="6 6"/>
<path d="M0.87207 97.8399C23.5441 97.8399 24.3011 74.5337 51.8841 74.5337C79.467 74.5337 99.7074 115.104 138.648 115.104C193.814 115.104 244.16 22.6719 287.76 22.6719C306.072 22.6719 312.176 44.4719 325.256 44.4719" stroke="url(#paint0_linear_1871_1568)" stroke-width="3"/>
<rect y="42.728" width="95.92" height="59.296" rx="8" fill="#00DA00" fill-opacity="0.2"/>
<rect x="95.9199" y="82.8398" width="87.2" height="59.296" rx="8" fill="#00DA00" fill-opacity="0.2"/>
<rect x="252.008" width="74.992" height="59.296" rx="8" fill="#00DA00" fill-opacity="0.2"/>
<rect x="182.248" y="42.728" width="69.76" height="59.296" rx="8" fill="#00DA00" fill-opacity="0.2"/>
<path d="M203.347 116.192V117.5H201.799V123.008H200.215V111.968H201.799V116.192H203.347ZM193.651 113.108H198.859C198.859 116.432 197.611 119.264 193.927 121.124L193.039 119.912C195.619 118.58 196.975 116.852 197.263 114.392H193.651V113.108ZM211.722 111.98L213.306 111.992V118.532H211.722V117.38H209.286V116.108H211.722V115.028H209.466C208.71 116.744 207.15 117.908 204.786 118.532L204.174 117.296C206.682 116.672 207.99 115.436 208.23 113.936H204.81V112.676H209.934C209.934 113.024 209.898 113.384 209.838 113.756H211.722V111.98ZM205.77 120.248V119H213.306V122.984H211.722V120.248H205.77ZM225.239 111.98H226.823V118.376H225.239V115.856H223.271V117.908H218.051V112.616H219.623V114.08H221.723V112.604H223.271V114.584H225.239V111.98ZM221.723 116.66V115.292H219.623V116.66H221.723ZM219.467 122.912V118.832H226.823V122.912H219.467ZM221.027 120.08V121.664H225.275V120.08H221.027ZM236.171 111.98H237.755V123.02H236.171V111.98ZM232.091 117.14C230.423 117.14 229.187 116.168 229.187 114.788C229.187 113.396 230.423 112.424 232.091 112.424C233.759 112.424 234.983 113.396 234.983 114.788C234.983 116.168 233.759 117.14 232.091 117.14ZM232.091 113.708C231.275 113.708 230.711 114.068 230.711 114.788C230.711 115.46 231.275 115.844 232.091 115.844C232.907 115.844 233.471 115.46 233.471 114.788C233.471 114.068 232.907 113.708 232.091 113.708ZM235.547 117.416L235.643 118.568C234.731 118.748 233.843 118.856 232.931 118.94V122.696H231.347V119.036C230.387 119.072 229.499 119.084 228.719 119.084L228.539 117.788C230.459 117.788 233.207 117.764 235.547 117.416Z" fill="#00BF00"/>
<path d="M184.864 84.584H193.584V140.392H184.864" stroke="#00BF00"/>
<circle cx="47.96" cy="74.1202" r="5.232" fill="white"/>
<circle cx="47.96" cy="74.1202" r="3.232" stroke="#00DA00" stroke-opacity="0.7" stroke-width="4"/>
<circle cx="139.52" cy="115.104" r="3.232" fill="white" stroke="#00BF00" stroke-width="4"/>
<circle cx="216.256" cy="70.6319" r="5.232" fill="white"/>
<circle cx="216.256" cy="70.6319" r="3.232" stroke="#00DA00" stroke-opacity="0.7" stroke-width="4"/>
<circle cx="285.144" cy="22.6719" r="5.232" fill="white"/>
<circle cx="285.144" cy="22.6719" r="3.232" stroke="#00DA00" stroke-opacity="0.8" stroke-width="4"/>
<defs>
<linearGradient id="paint0_linear_1871_1568" x1="114.449" y1="103.882" x2="228.107" y2="-1.92089" gradientUnits="userSpaceOnUse">
<stop stop-color="#B39C7D"/>
<stop offset="1" stop-color="#00BF00"/>
</linearGradient>
</defs>
</svg>
