<svg width="12" height="14" viewBox="0 0 12 14" fill="none" xmlns="http://www.w3.org/2000/svg">
<path d="M6.13848e-05 7.87494C6.124e-05 4.56161 2.68673 1.87494 6.00006 1.87494L6.00006 0.931157C6.00006 0.541386 6.47131 0.346188 6.74692 0.621798L8.66673 2.54161L6.74692 4.46141C6.47131 4.73702 6.00006 4.54182 6.00006 4.15205L6.00006 3.20827C3.42006 3.20827 1.33339 5.29494 1.33339 7.87494C1.33339 10.4549 3.42006 12.5416 6.00006 12.5416C8.58006 12.5416 10.6667 10.4549 10.6667 7.87494C10.6667 6.86827 10.3401 5.93494 9.80006 5.16827L10.7601 4.2216C11.5334 5.23494 12.0001 6.5016 12.0001 7.87494C12.0001 11.1883 9.3134 13.8749 6.00006 13.8749C2.68673 13.8749 6.15297e-05 11.1883 6.13848e-05 7.87494Z" fill="#9BA4BA"/>
</svg>
