<svg width="16" height="16" viewBox="0 0 16 16" fill="none" xmlns="http://www.w3.org/2000/svg">
<circle cx="8" cy="8" r="8" fill="#DEE3EB"/>
<path fill-rule="evenodd" clip-rule="evenodd" d="M5.23072 10.7693C5.439 10.9776 5.77669 10.9776 5.98497 10.7693L7.87059 8.88371L9.75621 10.7693C9.96449 10.9776 10.3022 10.9776 10.5105 10.7693C10.7187 10.561 10.7187 10.2234 10.5105 10.0151L8.62484 8.12946L10.5105 6.24384C10.7187 6.03556 10.7187 5.69788 10.5105 5.4896C10.3022 5.28132 9.96449 5.28132 9.75621 5.4896L7.87059 7.37521L5.98497 5.4896C5.7767 5.28132 5.43901 5.28132 5.23073 5.4896C5.02245 5.69788 5.02245 6.03556 5.23073 6.24384L7.11634 8.12946L5.23072 10.0151C5.02244 10.2234 5.02244 10.561 5.23072 10.7693Z" fill="#999999"/>
</svg>
