<svg width="375" height="163" viewBox="0 0 375 163" fill="none" xmlns="http://www.w3.org/2000/svg">
<rect x="1.25" y="49.25" width="373.5" height="0.5" stroke="#CCCCCC" stroke-width="0.5" stroke-linecap="round" stroke-dasharray="6 6"/>
<rect x="1.25" y="117.25" width="373.5" height="0.5" stroke="#CCCCCC" stroke-width="0.5" stroke-linecap="round" stroke-dasharray="6 6"/>
<path d="M1 112.202C27 112.202 27.8682 85.4746 59.5 85.4746C91.1318 85.4746 114.343 132 159 132C222.264 132 280 26 330 26C351 26 358 51 373 51" stroke="url(#paint0_linear_1557_645)" stroke-width="3"/>
<rect y="49" width="110" height="68" rx="8" fill="#00DA00" fill-opacity="0.2"/>
<rect x="110" y="95" width="100" height="68" rx="8" fill="#00DA00" fill-opacity="0.2"/>
<rect x="289" width="86" height="68" rx="8" fill="#00DA00" fill-opacity="0.2"/>
<rect x="209" y="49" width="80" height="68" rx="8" fill="#00DA00" fill-opacity="0.2"/>
<path d="M235.019 132.192V133.5H233.471V139.008H231.887V127.968H233.471V132.192H235.019ZM225.322 129.108H230.531C230.531 132.432 229.283 135.264 225.598 137.124L224.71 135.912C227.29 134.58 228.646 132.852 228.934 130.392H225.322V129.108ZM243.394 127.98L244.978 127.992V134.532H243.394V133.38H240.958V132.108H243.394V131.028H241.138C240.382 132.744 238.822 133.908 236.458 134.532L235.846 133.296C238.354 132.672 239.662 131.436 239.902 129.936H236.482V128.676H241.606C241.606 129.024 241.57 129.384 241.51 129.756H243.394V127.98ZM237.442 136.248V135H244.978V138.984H243.394V136.248H237.442ZM256.911 127.98H258.495V134.376H256.911V131.856H254.943V133.908H249.723V128.616H251.295V130.08H253.395V128.604H254.943V130.584H256.911V127.98ZM253.395 132.66V131.292H251.295V132.66H253.395ZM251.139 138.912V134.832H258.495V138.912H251.139ZM252.699 136.08V137.664H256.947V136.08H252.699ZM267.842 127.98H269.426V139.02H267.842V127.98ZM263.762 133.14C262.094 133.14 260.858 132.168 260.858 130.788C260.858 129.396 262.094 128.424 263.762 128.424C265.43 128.424 266.654 129.396 266.654 130.788C266.654 132.168 265.43 133.14 263.762 133.14ZM263.762 129.708C262.946 129.708 262.382 130.068 262.382 130.788C262.382 131.46 262.946 131.844 263.762 131.844C264.578 131.844 265.142 131.46 265.142 130.788C265.142 130.068 264.578 129.708 263.762 129.708ZM267.218 133.416L267.314 134.568C266.402 134.748 265.514 134.856 264.602 134.94V138.696H263.018V135.036C262.058 135.072 261.17 135.084 260.39 135.084L260.21 133.788C262.13 133.788 264.878 133.764 267.218 133.416Z" fill="#00BF00"/>
<path d="M212 97H222V161H212" stroke="#00BF00"/>
<circle cx="55" cy="85" r="6" fill="white"/>
<circle cx="55" cy="85" r="4" stroke="#00DA00" stroke-opacity="0.7" stroke-width="4"/>
<circle cx="160" cy="132" r="4" fill="white" stroke="#00BF00" stroke-width="4"/>
<circle cx="248" cy="81" r="6" fill="white"/>
<circle cx="248" cy="81" r="4" stroke="#00DA00" stroke-opacity="0.7" stroke-width="4"/>
<circle cx="327" cy="26" r="6" fill="white"/>
<circle cx="327" cy="26" r="4" stroke="#00DA00" stroke-opacity="0.8" stroke-width="4"/>
<defs>
<linearGradient id="paint0_linear_1557_645" x1="131.249" y1="119.131" x2="261.591" y2="-2.20271" gradientUnits="userSpaceOnUse">
<stop stop-color="#B39C7D"/>
<stop offset="1" stop-color="#00BF00"/>
</linearGradient>
</defs>
</svg>
