<svg width="16" height="9" viewBox="0 0 16 9" fill="none" xmlns="http://www.w3.org/2000/svg">
<path d="M16 1.45455C16 2.25455 15.3455 2.90909 14.5455 2.90909C14.4145 2.90909 14.2909 2.89455 14.1745 2.85818L11.5855 5.44C11.6218 5.55636 11.6364 5.68727 11.6364 5.81818C11.6364 6.61818 10.9818 7.27273 10.1818 7.27273C9.38182 7.27273 8.72727 6.61818 8.72727 5.81818C8.72727 5.68727 8.74182 5.55636 8.77818 5.44L6.92364 3.58545C6.80727 3.62182 6.67636 3.63636 6.54545 3.63636C6.41455 3.63636 6.28364 3.62182 6.16727 3.58545L2.85818 6.90182C2.89455 7.01818 2.90909 7.14182 2.90909 7.27273C2.90909 8.07273 2.25455 8.72727 1.45455 8.72727C0.654545 8.72727 0 8.07273 0 7.27273C0 6.47273 0.654545 5.81818 1.45455 5.81818C1.58545 5.81818 1.70909 5.83273 1.82545 5.86909L5.14182 2.56C5.10545 2.44364 5.09091 2.31273 5.09091 2.18182C5.09091 1.38182 5.74545 0.727273 6.54545 0.727273C7.34545 0.727273 8 1.38182 8 2.18182C8 2.31273 7.98546 2.44364 7.94909 2.56L9.80364 4.41455C9.92 4.37818 10.0509 4.36364 10.1818 4.36364C10.3127 4.36364 10.4436 4.37818 10.56 4.41455L13.1418 1.82545C13.1055 1.70909 13.0909 1.58545 13.0909 1.45455C13.0909 0.654545 13.7455 0 14.5455 0C15.3455 0 16 0.654545 16 1.45455Z" fill="#828DA9"/>
</svg>
