<svg width="327" height="128" viewBox="0 0 327 128" fill="none" xmlns="http://www.w3.org/2000/svg">
<rect x="5.92097" y="1.21345" width="318.889" height="0.426893" stroke="#CCCCCC" stroke-width="0.426893" stroke-linecap="round" stroke-dasharray="6 6"/>
<rect x="5.92097" y="60.1246" width="318.889" height="0.426893" stroke="#CCCCCC" stroke-width="0.426893" stroke-linecap="round" stroke-dasharray="6 6"/>
<rect x="5.92097" y="126.72" width="318.889" height="0.426893" stroke="#CCCCCC" stroke-width="0.426893" stroke-linecap="round" stroke-dasharray="6 6"/>
<path d="M18.9412 66.0073C45.948 66.0073 71.7421 27.1384 109.869 27.1384C163.883 27.1384 183.295 116.359 234.297 109.956C258.24 106.95 267.658 87.1363 288.311 87.1363" stroke="url(#paint0_linear_1871_1584)" stroke-width="3"/>
<rect x="65.4727" y="1.854" width="85.3786" height="58.0574" rx="8" fill="#00DA00" fill-opacity="0.2"/>
<rect x="185.149" y="1" width="80" height="125.507" rx="8" fill="#00DA00" fill-opacity="0.2"/>
<path d="M11.0043 26.9752V28.2832H9.45628V33.7912H7.87228V22.7512H9.45628V26.9752H11.0043ZM1.30828 23.8912H6.51628C6.51628 27.2152 5.26828 30.0472 1.58428 31.9072L0.696281 30.6952C3.27628 29.3632 4.63228 27.6352 4.92028 25.1752H1.30828V23.8912ZM19.3793 22.7632L20.9633 22.7752V29.3152H19.3793V28.1632H16.9433V26.8912H19.3793V25.8112H17.1233C16.3673 27.5272 14.8073 28.6912 12.4433 29.3152L11.8313 28.0792C14.3393 27.4552 15.6473 26.2192 15.8873 24.7192H12.4673V23.4592H17.5913C17.5913 23.8072 17.5553 24.1672 17.4953 24.5392H19.3793V22.7632ZM13.4273 31.0312V29.7832H20.9633V33.7672H19.3793V31.0312H13.4273ZM30.2984 22.7632H31.8824V29.1592H30.2984V26.6392H28.3304V28.6912H23.1104V23.3992H24.6824V24.8632H26.7824V23.3872H28.3304V25.3672H30.2984V22.7632ZM26.7824 27.4432V26.0752H24.6824V27.4432H26.7824ZM24.5264 33.6952V29.6152H31.8824V33.6952H24.5264ZM26.0864 30.8632V32.4472H30.3344V30.8632H26.0864ZM41.2295 22.7632H42.8135V33.8032H41.2295V22.7632ZM37.1495 27.9232C35.4815 27.9232 34.2455 26.9512 34.2455 25.5712C34.2455 24.1792 35.4815 23.2072 37.1495 23.2072C38.8175 23.2072 40.0415 24.1792 40.0415 25.5712C40.0415 26.9512 38.8175 27.9232 37.1495 27.9232ZM37.1495 24.4912C36.3335 24.4912 35.7695 24.8512 35.7695 25.5712C35.7695 26.2432 36.3335 26.6272 37.1495 26.6272C37.9655 26.6272 38.5295 26.2432 38.5295 25.5712C38.5295 24.8512 37.9655 24.4912 37.1495 24.4912ZM40.6055 28.1992L40.7015 29.3512C39.7895 29.5312 38.9015 29.6392 37.9895 29.7232V33.4792H36.4055V29.8192C35.4455 29.8552 34.5575 29.8672 33.7775 29.8672L33.5975 28.5712C35.5175 28.5712 38.2655 28.5472 40.6055 28.1992ZM50.0433 23.8072H51.4593V31.4512H53.0073V32.7832H48.0633V31.4512H49.8153V26.5672L49.8633 25.7872L48.3993 27.1192L47.4513 26.0392L50.0433 23.8072Z" fill="#00BF00"/>
<path d="M283.9 26.9752V28.2832H282.352V33.7912H280.768V22.7512H282.352V26.9752H283.9ZM274.204 23.8912H279.412C279.412 27.2152 278.164 30.0472 274.48 31.9072L273.592 30.6952C276.172 29.3632 277.528 27.6352 277.816 25.1752H274.204V23.8912ZM292.275 22.7632L293.859 22.7752V29.3152H292.275V28.1632H289.839V26.8912H292.275V25.8112H290.019C289.263 27.5272 287.703 28.6912 285.339 29.3152L284.727 28.0792C287.235 27.4552 288.543 26.2192 288.783 24.7192H285.363V23.4592H290.487C290.487 23.8072 290.451 24.1672 290.391 24.5392H292.275V22.7632ZM286.323 31.0312V29.7832H293.859V33.7672H292.275V31.0312H286.323ZM303.194 22.7632H304.778V29.1592H303.194V26.6392H301.226V28.6912H296.006V23.3992H297.578V24.8632H299.678V23.3872H301.226V25.3672H303.194V22.7632ZM299.678 27.4432V26.0752H297.578V27.4432H299.678ZM297.422 33.6952V29.6152H304.778V33.6952H297.422ZM298.982 30.8632V32.4472H303.23V30.8632H298.982ZM314.125 22.7632H315.709V33.8032H314.125V22.7632ZM310.045 27.9232C308.377 27.9232 307.141 26.9512 307.141 25.5712C307.141 24.1792 308.377 23.2072 310.045 23.2072C311.713 23.2072 312.937 24.1792 312.937 25.5712C312.937 26.9512 311.713 27.9232 310.045 27.9232ZM310.045 24.4912C309.229 24.4912 308.665 24.8512 308.665 25.5712C308.665 26.2432 309.229 26.6272 310.045 26.6272C310.861 26.6272 311.425 26.2432 311.425 25.5712C311.425 24.8512 310.861 24.4912 310.045 24.4912ZM313.501 28.1992L313.597 29.3512C312.685 29.5312 311.797 29.6392 310.885 29.7232V33.4792H309.301V29.8192C308.341 29.8552 307.453 29.8672 306.673 29.8672L306.493 28.5712C308.413 28.5712 311.161 28.5472 313.501 28.1992ZM323.227 23.6632C324.895 23.6632 326.059 24.7312 326.059 26.2672C326.023 27.5272 325.135 28.5712 324.247 29.4952L322.387 31.3672C322.711 31.2832 322.999 31.2712 323.275 31.2712H326.155V32.7832H319.903V31.8232L322.915 28.8592C323.827 27.9472 324.391 27.2272 324.391 26.3032C324.391 25.4752 323.899 25.0432 323.119 25.0432C322.447 25.0432 321.967 25.4992 321.775 26.0272C321.715 26.2072 321.691 26.3872 321.679 26.6272L320.107 26.3632C320.395 24.5272 321.583 23.6632 323.227 23.6632Z" fill="#00BF00"/>
<path d="M65.4727 3.56152H56.9348V58.2038H65.4727" stroke="#00BF00"/>
<path d="M262.527 1H271.065V127.36H262.527" stroke="#00BF00"/>
<circle cx="108.162" cy="27.4674" r="3.12272" fill="white" stroke="#00BF00" stroke-width="4"/>
<circle cx="226.838" cy="110.285" r="3.12272" fill="white" stroke="#00BF00" stroke-width="4"/>
<defs>
<linearGradient id="paint0_linear_1871_1584" x1="80.1992" y1="37.2718" x2="191.483" y2="140.865" gradientUnits="userSpaceOnUse">
<stop stop-color="#B39C7D"/>
<stop offset="1" stop-color="#00BF00"/>
</linearGradient>
</defs>
</svg>
