<svg width="383" height="150" viewBox="0 0 383 150" fill="none" xmlns="http://www.w3.org/2000/svg">
<rect x="2.25" y="1.25" width="373.5" height="0.5" stroke="#CCCCCC" stroke-width="0.5" stroke-linecap="round" stroke-dasharray="6 6"/>
<rect x="2.25" y="70.25" width="373.5" height="0.5" stroke="#CCCCCC" stroke-width="0.5" stroke-linecap="round" stroke-dasharray="6 6"/>
<rect x="2.25" y="148.25" width="373.5" height="0.5" stroke="#CCCCCC" stroke-width="0.5" stroke-linecap="round" stroke-dasharray="6 6"/>
<path d="M17.5 77.14C49.1318 77.14 79.3433 31.6146 124 31.6146C187.264 31.6146 210 136.115 269.736 128.615C297.78 125.094 308.811 101.887 333 101.887" stroke="url(#paint0_linear_1557_646)" stroke-width="3"/>
<rect x="72" y="2" width="100" height="68" rx="8" fill="#00DA00" fill-opacity="0.2"/>
<rect x="211" y="1" width="100" height="147" rx="8" fill="#00DA00" fill-opacity="0.2"/>
<path d="M11.0043 30.192V31.5H9.45628V37.008H7.87228V25.968H9.45628V30.192H11.0043ZM1.30828 27.108H6.51628C6.51628 30.432 5.26828 33.264 1.58428 35.124L0.696281 33.912C3.27628 32.58 4.63228 30.852 4.92028 28.392H1.30828V27.108ZM19.3793 25.98L20.9633 25.992V32.532H19.3793V31.38H16.9433V30.108H19.3793V29.028H17.1233C16.3673 30.744 14.8073 31.908 12.4433 32.532L11.8313 31.296C14.3393 30.672 15.6473 29.436 15.8873 27.936H12.4673V26.676H17.5913C17.5913 27.024 17.5553 27.384 17.4953 27.756H19.3793V25.98ZM13.4273 34.248V33H20.9633V36.984H19.3793V34.248H13.4273ZM30.2984 25.98H31.8824V32.376H30.2984V29.856H28.3304V31.908H23.1104V26.616H24.6824V28.08H26.7824V26.604H28.3304V28.584H30.2984V25.98ZM26.7824 30.66V29.292H24.6824V30.66H26.7824ZM24.5264 36.912V32.832H31.8824V36.912H24.5264ZM26.0864 34.08V35.664H30.3344V34.08H26.0864ZM41.2295 25.98H42.8135V37.02H41.2295V25.98ZM37.1495 31.14C35.4815 31.14 34.2455 30.168 34.2455 28.788C34.2455 27.396 35.4815 26.424 37.1495 26.424C38.8175 26.424 40.0415 27.396 40.0415 28.788C40.0415 30.168 38.8175 31.14 37.1495 31.14ZM37.1495 27.708C36.3335 27.708 35.7695 28.068 35.7695 28.788C35.7695 29.46 36.3335 29.844 37.1495 29.844C37.9655 29.844 38.5295 29.46 38.5295 28.788C38.5295 28.068 37.9655 27.708 37.1495 27.708ZM40.6055 31.416L40.7015 32.568C39.7895 32.748 38.9015 32.856 37.9895 32.94V36.696H36.4055V33.036C35.4455 33.072 34.5575 33.084 33.7775 33.084L33.5975 31.788C35.5175 31.788 38.2655 31.764 40.6055 31.416ZM50.0433 27.024H51.4593V34.668H53.0073V36H48.0633V34.668H49.8153V29.784L49.8633 29.004L48.3993 30.336L47.4513 29.256L50.0433 27.024Z" fill="#00BF00"/>
<path d="M340.004 30.192V31.5H338.456V37.008H336.872V25.968H338.456V30.192H340.004ZM330.308 27.108H335.516C335.516 30.432 334.268 33.264 330.584 35.124L329.696 33.912C332.276 32.58 333.632 30.852 333.92 28.392H330.308V27.108ZM348.379 25.98L349.963 25.992V32.532H348.379V31.38H345.943V30.108H348.379V29.028H346.123C345.367 30.744 343.807 31.908 341.443 32.532L340.831 31.296C343.339 30.672 344.647 29.436 344.887 27.936H341.467V26.676H346.591C346.591 27.024 346.555 27.384 346.495 27.756H348.379V25.98ZM342.427 34.248V33H349.963V36.984H348.379V34.248H342.427ZM359.298 25.98H360.882V32.376H359.298V29.856H357.33V31.908H352.11V26.616H353.682V28.08H355.782V26.604H357.33V28.584H359.298V25.98ZM355.782 30.66V29.292H353.682V30.66H355.782ZM353.526 36.912V32.832H360.882V36.912H353.526ZM355.086 34.08V35.664H359.334V34.08H355.086ZM370.229 25.98H371.813V37.02H370.229V25.98ZM366.149 31.14C364.481 31.14 363.245 30.168 363.245 28.788C363.245 27.396 364.481 26.424 366.149 26.424C367.817 26.424 369.041 27.396 369.041 28.788C369.041 30.168 367.817 31.14 366.149 31.14ZM366.149 27.708C365.333 27.708 364.769 28.068 364.769 28.788C364.769 29.46 365.333 29.844 366.149 29.844C366.965 29.844 367.529 29.46 367.529 28.788C367.529 28.068 366.965 27.708 366.149 27.708ZM369.605 31.416L369.701 32.568C368.789 32.748 367.901 32.856 366.989 32.94V36.696H365.405V33.036C364.445 33.072 363.557 33.084 362.777 33.084L362.597 31.788C364.517 31.788 367.265 31.764 369.605 31.416ZM379.331 26.88C380.999 26.88 382.163 27.948 382.163 29.484C382.127 30.744 381.239 31.788 380.351 32.712L378.491 34.584C378.815 34.5 379.103 34.488 379.379 34.488H382.259V36H376.007V35.04L379.019 32.076C379.931 31.164 380.495 30.444 380.495 29.52C380.495 28.692 380.003 28.26 379.223 28.26C378.551 28.26 378.071 28.716 377.879 29.244C377.819 29.424 377.795 29.604 377.783 29.844L376.211 29.58C376.499 27.744 377.687 26.88 379.331 26.88Z" fill="#00BF00"/>
<path d="M72 4H62V68H72" stroke="#00BF00"/>
<path d="M311 1H321V149H311" stroke="#00BF00"/>
<circle cx="122" cy="32" r="4" fill="white" stroke="#00BF00" stroke-width="4"/>
<circle cx="261" cy="129" r="4" fill="white" stroke="#00BF00" stroke-width="4"/>
<defs>
<linearGradient id="paint0_linear_1557_646" x1="89.2488" y1="43.4834" x2="219.591" y2="164.817" gradientUnits="userSpaceOnUse">
<stop stop-color="#B39C7D"/>
<stop offset="1" stop-color="#00BF00"/>
</linearGradient>
</defs>
</svg>
