<svg width="80" height="133" viewBox="0 0 80 133" fill="none" xmlns="http://www.w3.org/2000/svg">
<g filter="url(#filter0_i_1557_629)">
<path d="M39.9999 40.5981L79.6276 63.4818V109.249L40 132.133L0.37207 109.249V63.4818L39.9999 40.5981Z" fill="#00BF00"/>
</g>
<path d="M3 107.874V68.2599L36.9999 87.5331V127.148L3 107.874Z" stroke="#FFBC7D" stroke-width="6"/>
<path d="M76.9998 107.874V68.2599L42.9999 87.5331V127.148L76.9998 107.874Z" stroke="#00DA00" stroke-width="6"/>
<path d="M6.06 63.2267L39.9999 82.5645L73.9398 63.2267L39.9999 43.8888L6.06 63.2267Z" stroke="#FFD5AE" stroke-width="6"/>
<g filter="url(#filter1_i_1557_629)">
<mask id="path-5-inside-1_1557_629" fill="white">
<path d="M49.7678 67.6683L46.4188 69.5526L29.3956 59.7851L32.7446 57.9009L49.7678 67.6683Z"/>
</mask>
<path d="M49.7678 67.6683L52.7538 62.4641L61.9131 67.7195L52.7099 72.8975L49.7678 67.6683ZM46.4188 69.5526L49.3609 74.7817L46.3898 76.4534L43.4328 74.7568L46.4188 69.5526ZM29.3956 59.7851L26.4096 64.9893L17.2503 59.734L26.4535 54.556L29.3956 59.7851ZM32.7446 57.9009L29.8025 52.6717L32.7737 51.0001L35.7306 52.6967L32.7446 57.9009ZM52.7099 72.8975L49.3609 74.7817L43.4767 64.3234L46.8257 62.4392L52.7099 72.8975ZM43.4328 74.7568L26.4096 64.9893L32.3817 54.5809L49.4049 64.3484L43.4328 74.7568ZM26.4535 54.556L29.8025 52.6717L35.6867 63.13L32.3377 65.0143L26.4535 54.556ZM35.7306 52.6967L52.7538 62.4641L46.7818 72.8725L29.7586 63.1051L35.7306 52.6967Z" fill="#00BF00" mask="url(#path-5-inside-1_1557_629)"/>
</g>
<ellipse cx="43.5046" cy="27.9013" rx="22.664" ry="16.5477" transform="rotate(-120 43.5046 27.9013)" fill="url(#paint0_linear_1557_629)"/>
<ellipse cx="41.1125" cy="29.0985" rx="22.664" ry="16.5477" transform="rotate(-120 41.1125 29.0985)" fill="url(#paint1_linear_1557_629)"/>
<defs>
<filter id="filter0_i_1557_629" x="0.37207" y="40.5981" width="83.2556" height="95.5347" filterUnits="userSpaceOnUse" color-interpolation-filters="sRGB">
<feFlood flood-opacity="0" result="BackgroundImageFix"/>
<feBlend mode="normal" in="SourceGraphic" in2="BackgroundImageFix" result="shape"/>
<feColorMatrix in="SourceAlpha" type="matrix" values="0 0 0 0 0 0 0 0 0 0 0 0 0 0 0 0 0 0 127 0" result="hardAlpha"/>
<feOffset dx="4" dy="4"/>
<feGaussianBlur stdDeviation="10"/>
<feComposite in2="hardAlpha" operator="arithmetic" k2="-1" k3="1"/>
<feColorMatrix type="matrix" values="0 0 0 0 0 0 0 0 0 0 0 0 0 0 0 0 0 0 0.25 0"/>
<feBlend mode="normal" in2="shape" result="effect1_innerShadow_1557_629"/>
</filter>
<filter id="filter1_i_1557_629" x="29.3958" y="57.9009" width="20.3721" height="15.6519" filterUnits="userSpaceOnUse" color-interpolation-filters="sRGB">
<feFlood flood-opacity="0" result="BackgroundImageFix"/>
<feBlend mode="normal" in="SourceGraphic" in2="BackgroundImageFix" result="shape"/>
<feColorMatrix in="SourceAlpha" type="matrix" values="0 0 0 0 0 0 0 0 0 0 0 0 0 0 0 0 0 0 127 0" result="hardAlpha"/>
<feOffset dy="4"/>
<feGaussianBlur stdDeviation="2"/>
<feComposite in2="hardAlpha" operator="arithmetic" k2="-1" k3="1"/>
<feColorMatrix type="matrix" values="0 0 0 0 0 0 0 0 0 0 0 0 0 0 0 0 0 0 0.25 0"/>
<feBlend mode="normal" in2="shape" result="effect1_innerShadow_1557_629"/>
</filter>
<linearGradient id="paint0_linear_1557_629" x1="30.8836" y1="15.8455" x2="69.0096" y2="25.7711" gradientUnits="userSpaceOnUse">
<stop stop-color="#00DA00"/>
<stop offset="1" stop-color="#FFBA32"/>
</linearGradient>
<linearGradient id="paint1_linear_1557_629" x1="28.4915" y1="17.0427" x2="66.6175" y2="26.9684" gradientUnits="userSpaceOnUse">
<stop stop-color="#FFBA32"/>
<stop offset="1" stop-color="white"/>
</linearGradient>
</defs>
</svg>
