<svg width="177" height="102" viewBox="0 0 177 102" fill="none" xmlns="http://www.w3.org/2000/svg">
<rect x="9.25" y="17.25" width="159.5" height="0.5" stroke="#CCCCCC" stroke-width="0.5" stroke-linecap="round" stroke-dasharray="6 6"/>
<rect x="9.25" y="85.25" width="159.5" height="0.5" stroke="#CCCCCC" stroke-width="0.5" stroke-linecap="round" stroke-dasharray="6 6"/>
<rect y="2" width="103" height="28" rx="14" fill="#00BF00"/>
<path d="M17.226 20H14.916L12.788 16.08H11.346V20H9.274V9.64H12.886C15.07 9.64 16.778 10.382 16.778 12.776C16.778 14.358 15.994 15.296 14.804 15.758L17.226 20ZM11.346 11.278V14.442H12.69C14.034 14.442 14.748 13.896 14.748 12.776C14.748 11.656 14.034 11.278 12.69 11.278H11.346ZM22.051 20.196C19.867 20.196 18.159 18.67 18.159 16.094C18.159 13.56 19.951 11.964 21.813 11.964C23.969 11.964 25.089 13.546 25.089 15.716C25.089 16.094 25.047 16.472 24.991 16.654H20.161C20.329 17.942 21.155 18.614 22.331 18.614C22.989 18.614 23.535 18.418 24.095 18.068L24.795 19.328C24.011 19.874 23.059 20.196 22.051 20.196ZM20.133 15.296H23.325C23.325 14.232 22.849 13.56 21.841 13.56C21.015 13.56 20.287 14.162 20.133 15.296ZM30.7177 20.196C30.0037 20.196 29.2757 19.832 28.6177 19.174H28.5757L28.3937 20H26.7837V8.828H28.8277V11.642L28.7857 12.902C29.4017 12.342 30.1717 11.964 30.9557 11.964C32.9017 11.964 34.0497 13.546 34.0497 15.94C34.0497 18.628 32.4397 20.196 30.7177 20.196ZM30.2557 18.502C31.2077 18.502 31.9357 17.718 31.9357 15.982C31.9357 14.47 31.4597 13.658 30.3817 13.658C29.8357 13.658 29.3737 13.924 28.8277 14.47V17.914C29.3177 18.348 29.8217 18.502 30.2557 18.502ZM37.7255 20.14C36.3255 20.14 35.4015 19.23 35.4015 17.872C35.3035 15.954 36.6615 15.072 39.9095 14.974C39.9515 14.638 39.8815 14.302 39.7275 13.98C39.5595 13.742 39.1815 13.616 38.5795 13.616C37.8515 13.616 37.0255 13.896 36.3115 14.358L35.6955 12.888C36.5495 12.37 37.7255 11.964 38.9575 11.964C40.9595 11.964 41.9675 13.112 41.9675 15.422V20H40.2875L40.1335 19.202H40.0915C39.4195 19.776 38.6215 20.14 37.7255 20.14ZM38.3555 18.572C38.9575 18.558 39.4195 18.306 39.9095 17.816V16.234C39.4195 16.276 38.9435 16.318 38.4955 16.388C37.5995 16.514 37.2775 16.962 37.2915 17.522C37.3055 18.18 37.7535 18.572 38.3555 18.572ZM46.109 20H44.065V8.828H46.109V20ZM50.413 20.14C49.013 20.14 48.089 19.23 48.089 17.872C47.991 15.954 49.349 15.072 52.597 14.974C52.639 14.638 52.569 14.302 52.415 13.98C52.247 13.742 51.869 13.616 51.267 13.616C50.539 13.616 49.713 13.896 48.999 14.358L48.383 12.888C49.237 12.37 50.413 11.964 51.645 11.964C53.647 11.964 54.655 13.112 54.655 15.422V20H52.975L52.821 19.202H52.779C52.107 19.776 51.309 20.14 50.413 20.14ZM51.043 18.572C51.645 18.558 52.107 18.306 52.597 17.816V16.234C52.107 16.276 51.631 16.318 51.183 16.388C50.287 16.514 49.965 16.962 49.979 17.522C49.993 18.18 50.441 18.572 51.043 18.572ZM56.7525 20V12.16H58.4325L58.5725 13.196H58.6285C59.3145 12.524 60.1125 11.964 61.1765 11.964C62.8705 11.964 63.5985 13.14 63.5985 15.114V20H61.5405V15.366C61.5405 14.148 61.2185 13.728 60.4345 13.728C59.7765 13.728 59.3985 14.036 58.7965 14.61V20H56.7525ZM69.0532 20.196C66.8832 20.196 65.2312 18.67 65.2312 16.094C65.2312 13.476 67.1072 11.964 69.2352 11.964C70.2012 11.964 70.9432 12.342 71.5172 12.832L70.5372 14.162C70.1452 13.826 69.7812 13.644 69.3332 13.644C68.1432 13.644 67.3312 14.582 67.3312 16.094C67.3312 17.284 67.9192 18.516 69.2772 18.516C69.8372 18.516 70.3692 18.264 70.8032 17.886L71.6152 19.244C70.8732 19.902 69.9492 20.196 69.0532 20.196ZM74.966 8.912V10.9H72.922V8.912H74.966ZM74.952 20H72.908V12.16H74.952V20ZM76.9732 20V12.16H78.6532L78.7932 13.196H78.8492C79.5352 12.524 80.3332 11.964 81.3972 11.964C83.0912 11.964 83.8192 13.14 83.8192 15.114V20H81.7612V15.366C81.7612 14.148 81.4392 13.728 80.6552 13.728C79.9972 13.728 79.6192 14.036 79.0172 14.61V20H76.9732ZM88.6999 23.402C86.8519 23.402 85.4239 22.772 85.4239 21.386C85.4239 20.728 85.8299 20.168 86.5439 19.762V19.692C86.1379 19.426 85.8299 19.034 85.8299 18.376C85.8299 17.774 86.2359 17.242 86.6979 16.906V16.85C86.1519 16.458 85.6619 15.716 85.6619 14.806C85.6619 12.958 87.1599 11.964 88.8259 11.964C89.2599 11.964 89.6799 12.048 90.0019 12.16H92.8299V13.672H91.4859C91.6959 13.938 91.8499 14.372 91.8499 14.862C91.8499 16.612 90.5059 17.522 88.8259 17.522C88.5039 17.522 88.1539 17.452 87.8179 17.34C87.5939 17.522 87.4819 17.69 87.4819 18.012C87.4819 18.446 87.7619 18.656 88.7139 18.656H90.0439C91.9619 18.656 92.9559 19.216 92.9559 20.616C92.9559 22.198 91.3319 23.402 88.6999 23.402ZM88.8259 16.248C89.5119 16.248 90.0439 15.758 90.0439 14.806C90.0439 13.854 89.5399 13.364 88.8259 13.364C88.1119 13.364 87.5939 13.854 87.5939 14.806C87.5939 15.758 88.1399 16.248 88.8259 16.248ZM89.0079 22.1C90.1839 22.1 90.9959 21.582 90.9959 20.966C90.9959 20.406 90.5339 20.266 89.6939 20.266H88.7419C88.2519 20.266 87.9299 20.224 87.6499 20.154C87.2999 20.434 87.1319 20.742 87.1319 21.064C87.1319 21.722 87.8319 22.1 89.0079 22.1Z" fill="white"/>
<rect x="107" y="72" width="70" height="28" rx="14" fill="#B39C7D"/>
<path d="M116.274 90V79.64H119.116C122.28 79.64 124.24 81.264 124.24 84.778C124.24 88.25 122.28 90 119.228 90H116.274ZM118.346 88.334H118.99C120.936 88.334 122.126 87.298 122.126 84.778C122.126 82.244 120.936 81.292 118.99 81.292H118.346V88.334ZM129.502 90.196C127.318 90.196 125.61 88.67 125.61 86.094C125.61 83.56 127.402 81.964 129.264 81.964C131.42 81.964 132.54 83.546 132.54 85.716C132.54 86.094 132.498 86.472 132.442 86.654H127.612C127.78 87.942 128.606 88.614 129.782 88.614C130.44 88.614 130.986 88.418 131.546 88.068L132.246 89.328C131.462 89.874 130.51 90.196 129.502 90.196ZM127.584 85.296H130.776C130.776 84.232 130.3 83.56 129.292 83.56C128.466 83.56 127.738 84.162 127.584 85.296ZM134.235 93.01V82.16H135.915L136.055 82.972H136.111C136.769 82.412 137.581 81.964 138.421 81.964C140.353 81.964 141.501 83.546 141.501 85.954C141.501 88.642 139.891 90.196 138.169 90.196C137.483 90.196 136.825 89.888 136.223 89.342L136.279 90.63V93.01H134.235ZM137.707 88.502C138.659 88.502 139.387 87.718 139.387 85.982C139.387 84.47 138.911 83.658 137.833 83.658C137.287 83.658 136.825 83.924 136.279 84.47V87.914C136.783 88.348 137.273 88.502 137.707 88.502ZM146.521 90.196C144.561 90.196 142.755 88.67 142.755 86.094C142.755 83.476 144.561 81.964 146.521 81.964C148.481 81.964 150.287 83.476 150.287 86.094C150.287 88.67 148.481 90.196 146.521 90.196ZM146.521 88.516C147.585 88.516 148.187 87.564 148.187 86.094C148.187 84.582 147.585 83.644 146.521 83.644C145.457 83.644 144.855 84.582 144.855 86.094C144.855 87.564 145.457 88.516 146.521 88.516ZM154.248 90.196C153.184 90.196 152.05 89.748 151.266 89.09L152.204 87.802C152.918 88.348 153.576 88.656 154.304 88.656C155.088 88.656 155.438 88.32 155.438 87.83C155.438 87.242 154.626 86.99 153.8 86.654C152.806 86.29 151.658 85.674 151.658 84.372C151.658 82.958 152.82 81.964 154.57 81.964C155.746 81.964 156.586 82.44 157.244 82.93L156.32 84.176C155.76 83.784 155.228 83.504 154.626 83.504C153.912 83.504 153.59 83.812 153.59 84.26C153.59 84.82 154.36 85.058 155.186 85.352C156.222 85.758 157.37 86.248 157.37 87.718C157.37 89.09 156.292 90.196 154.248 90.196ZM160.802 78.912V80.9H158.758V78.912H160.802ZM160.788 90H158.744V82.16H160.788V90ZM165.679 90.196C163.817 90.196 163.103 89.02 163.103 87.256V83.784H161.997V82.258L163.201 82.16L163.439 80.06H165.161V82.16H167.093V83.784H165.161V87.256C165.161 88.138 165.511 88.572 166.225 88.572C166.491 88.572 166.785 88.502 166.995 88.404L167.331 89.902C166.897 90.056 166.365 90.196 165.679 90.196Z" fill="white"/>
<path d="M9 80.2021C25.3184 80.2021 18.5522 53.4748 36.0647 53.4748C49.597 53.4748 55.1692 100 74.2736 100C101.338 100 111.687 2 141.935 2C163.03 2 158.652 28.7274 169 28.7274" stroke="url(#paint0_linear_1557_554)" stroke-width="3"/>
<defs>
<linearGradient id="paint0_linear_1557_554" x1="64.7214" y1="87.1313" x2="154.556" y2="51.3556" gradientUnits="userSpaceOnUse">
<stop stop-color="#B39C7D"/>
<stop offset="1" stop-color="#00BF00"/>
</linearGradient>
</defs>
</svg>
