<svg width="65" height="64" viewBox="0 0 65 64" fill="none" xmlns="http://www.w3.org/2000/svg">
<rect x="0.5" width="64" height="64" rx="32" fill="#EDE7FF"/>
<g clip-path="url(#clip0_1067_3642)">
<path d="M32.4988 27.6759C26.7064 27.6759 22.0098 32.3784 22.0098 38.1787C22.0098 43.979 26.7064 48.6815 32.4988 48.6815C38.2912 48.6815 42.9878 43.979 42.9878 38.1787C42.9878 32.3784 38.2912 27.6759 32.4988 27.6759ZM32.4988 39.785C31.6119 39.785 30.8945 39.0656 30.8945 38.1787C30.8945 37.2918 31.6119 36.5724 32.4988 36.5724C33.3857 36.5724 34.1031 37.2918 34.1031 38.1787C34.1031 39.0656 33.3857 39.785 32.4988 39.785Z" fill="#E36F2E"/>
<path d="M32.4988 15.3204C26.7064 15.3204 22.0098 20.023 22.0098 25.8233C22.0098 31.6236 26.7064 36.3261 32.4988 36.3261C38.2912 36.3261 42.9878 31.6236 42.9878 25.8233C42.9878 20.023 38.2932 15.3204 32.4988 15.3204ZM32.4988 27.4295C31.6119 27.4295 30.8945 26.7102 30.8945 25.8233C30.8945 24.9364 31.6119 24.217 32.4988 24.217C33.3857 24.217 34.1031 24.9364 34.1031 25.8233C34.1031 26.7102 33.3857 27.4295 32.4988 27.4295Z" fill="#E03488"/>
<path d="M30.6481 15.3204H22.0098V48.6795H30.6481V15.3204Z" fill="#72C3F3"/>
<path fill-rule="evenodd" clip-rule="evenodd" d="M24.0161 32C25.9239 29.3787 29.0123 27.6759 32.5007 27.6759C35.9892 27.6759 39.0776 29.3787 40.9854 32C39.0776 34.6213 35.9892 36.3241 32.5007 36.3241C29.0123 36.3241 25.9239 34.6213 24.0161 32Z" fill="#E03D2D"/>
<path fill-rule="evenodd" clip-rule="evenodd" d="M30.6481 36.1625C25.7387 35.2874 22.0098 30.9909 22.0098 25.8233C22.0098 20.6556 25.7387 16.3591 30.6481 15.484V36.1625Z" fill="#2E0E8F"/>
<path fill-rule="evenodd" clip-rule="evenodd" d="M30.6481 48.5179C25.7387 47.6429 22.0098 43.3464 22.0098 38.1787C22.0098 33.0111 25.7387 28.7145 30.6481 27.8395V48.5179Z" fill="#396E2D"/>
<path fill-rule="evenodd" clip-rule="evenodd" d="M30.6481 27.8395C27.9322 28.3243 25.577 29.8537 24.0161 32C25.577 34.1463 27.9322 35.6776 30.6481 36.1605V27.8375V27.8395Z" fill="#7BC26E"/>
</g>
<defs>
<clipPath id="clip0_1067_3642">
<rect width="20.98" height="33.3591" fill="white" transform="translate(22.0098 15.3204)"/>
</clipPath>
</defs>
</svg>
