<svg width="59" height="42" xmlns="http://www.w3.org/2000/svg">
    <g fill="none" fill-rule="evenodd">
        <g opacity=".5" fill="#FFC032">
            <rect y="28.301" width="15.161" height="3.032" rx="1"/>
            <rect y="32.344" width="15.161" height="3.032" rx="1"/>
            <rect y="36.387" width="15.161" height="3.032" rx="1"/>
            <rect y="20.215" width="15.161" height="3.032" rx="1"/>
            <rect y="24.258" width="15.161" height="3.032" rx="1"/>
            <rect y="16.172" width="15.161" height="3.032" rx="1"/>
            <rect y="12.129" width="15.161" height="3.032" rx="1"/>
            <rect y="8.086" width="15.161" height="3.032" rx="1"/>
            <rect y="4.043" width="15.161" height="3.032" rx="1"/>
            <rect width="15.161" height="3.032" rx="1"/>
        </g>
        <g transform="rotate(45 12.781 53.225)">
            <circle fill="#00DA00" cx="5.02" cy="5.007" r="4.879"/>
            <path fill="#FFF" d="m3.15 4.453 4.532-.08-4.226 2.44z"/>
        </g>
        <g transform="translate(34.366 20.212)" fill="#FFC032" fill-opacity=".8">
            <rect y="15.161" width="14.151" height="4.043" rx="2"/>
            <rect y="5.054" width="14.151" height="4.043" rx="2"/>
            <rect y="10.108" width="14.151" height="4.043" rx="2"/>
            <rect width="14.151" height="4.043" rx="2"/>
        </g>
        <path d="m7.145 22.491 15.146-8.744a4 4 0 0 1 5.464 1.464l8.737 15.132a4 4 0 0 1-1.474 5.47l-6.065 3.48H12.21L5.68 27.951a4 4 0 0 1 1.466-5.46z" fill="#00DA00"/>
        <path d="M14.768 27.51a1.275 1.275 0 0 1 1.625-.147l.177.147 2.703 2.703 6.307-6.307a1.275 1.275 0 0 1 1.625-.147l.177.147c.442.442.491 1.13.147 1.626l-.147.176-8.11 8.11-4.504-4.506a1.274 1.274 0 0 1 0-1.802z" fill="#FFF" fill-rule="nonzero"/>
        <g transform="rotate(45 -7.152 79.14)">
            <circle fill="#00DA00" cx="5.648" cy="5.873" r="4.879"/>
            <path fill="#FFF" d="m3.78 5.319 4.53-.08-4.225 2.439z"/>
        </g>
    </g>
</svg>
