<svg width="64" height="64" viewBox="0 0 64 64" fill="none" xmlns="http://www.w3.org/2000/svg">
<rect width="64" height="64" rx="32" fill="#F1F1F1"/>
<path d="M32.5109 19.2894L35.5828 17.4778V13.3032L32.4321 11.4915V19.2894H32.5109Z" fill="#A4A7A9"/>
<path d="M21.1684 37.5632V25.7483L31.408 19.8408V11.4915L14.552 21.2586C14.3801 21.3478 14.2371 21.484 14.1395 21.6513C14.0419 21.8187 13.9937 22.0102 14.0007 22.2038V41.6591L21.2472 37.4844L21.1684 37.5632Z" fill="#27C4B8"/>
<path d="M42.2782 38.4296L31.9598 44.3371L21.7201 38.4296L14.4736 42.6043L31.4872 52.3713C31.6428 52.4612 31.8194 52.5085 31.9991 52.5085C32.1789 52.5085 32.3555 52.4612 32.5111 52.3713L49.5247 42.6043L42.1994 38.4296H42.2782Z" fill="#6D6E71"/>
<path d="M49.5243 21.2586L42.7504 17.399V21.6524L35.5039 25.7483L42.7504 29.9229V37.4844L49.9969 41.6591V22.2038C50.0115 22.0181 49.9752 21.832 49.892 21.6655C49.8087 21.4989 49.6816 21.3583 49.5243 21.2586Z" fill="#A4A7A9"/>
<path d="M28.3359 29.8441V38.1146L35.4249 34.0975V25.827L28.3359 29.8441Z" fill="#6D6E71"/>
</svg>
