<svg width="18" height="18" viewBox="0 0 18 18" xmlns="http://www.w3.org/2000/svg">
    <g stroke="#C1C5CC" fill="none" fill-rule="evenodd" stroke-linecap="round" stroke-linejoin="round">
        <path d="M9 11.4a2.4 2.4 0 1 0 0-4.8 2.4 2.4 0 0 0 0 4.8z"/>
        <path d="m15.098 7.716-.878-2.12L15.4 4.2l-1.6-1.6-1.388 1.186-2.166-.89L9.748 1H8.185l-.506 1.92-2.115.893L4.2 2.6 2.6 4.2l1.163 1.431-.865 2.126L1 8.2v1.6l1.92.524.893 2.116L2.6 13.8l1.6 1.6 1.433-1.168 2.085.858L8.2 17h1.6l.484-1.91 2.12-.878c.354.253 1.396 1.188 1.396 1.188l1.6-1.6-1.187-1.4.878-2.122L17 9.782V8.2l-1.902-.484z"/>
    </g>
</svg>
