<svg width="32" height="32" viewBox="0 0 32 32" fill="none" xmlns="http://www.w3.org/2000/svg">
<g clip-path="url(#clip0_2525_1364)">
<mask id="mask0_2525_1364" style="mask-type:luminance" maskUnits="userSpaceOnUse" x="0" y="0" width="32" height="32">
<path d="M0 0H32V32H0V0Z" fill="white"/>
</mask>
<g mask="url(#mask0_2525_1364)">
<path d="M16 31.96C24.8145 31.96 31.96 24.8144 31.96 16C31.96 7.18551 24.8145 0.039978 16 0.039978C7.18558 0.039978 0.0400391 7.18551 0.0400391 16C0.0400391 24.8144 7.18558 31.96 16 31.96Z" fill="#3396FF"/>
<path d="M9.80156 11.9172C13.2248 8.57887 18.7752 8.57887 22.1985 11.9172L22.6105 12.319C22.7817 12.4858 22.7817 12.7565 22.6105 12.9234L21.2012 14.2978C21.1156 14.3812 20.9768 14.3812 20.8912 14.2978L20.3243 13.7449C17.936 11.416 14.064 11.416 11.6758 13.7449L11.0686 14.337C10.983 14.4204 10.8443 14.4204 10.7587 14.337L9.34932 12.9626C9.17812 12.7957 9.17812 12.525 9.34932 12.3582L9.80156 11.9172ZM25.1133 14.7595L26.3676 15.9827C26.5388 16.1496 26.5388 16.4202 26.3676 16.5871L20.7116 22.1026C20.5405 22.2696 20.263 22.2696 20.0918 22.1026L16.0776 18.1882C16.0348 18.1464 15.9654 18.1464 15.9226 18.1882L11.9084 22.1026C11.7372 22.2696 11.4597 22.2696 11.2885 22.1026L5.6324 16.587C5.46124 16.4202 5.46124 16.1495 5.6324 15.9826L6.88676 14.7594C7.05793 14.5926 7.33544 14.5926 7.50661 14.7594L11.5209 18.674C11.5637 18.7158 11.6331 18.7158 11.6759 18.674L15.69 14.7594C15.8612 14.5925 16.1387 14.5925 16.3099 14.7594L20.3242 18.674C20.367 18.7158 20.4364 18.7158 20.4792 18.674L24.4935 14.7595C24.6646 14.5926 24.9421 14.5926 25.1133 14.7595Z" fill="white"/>
</g>
</g>
<defs>
<clipPath id="clip0_2525_1364">
<rect width="32" height="32" fill="white"/>
</clipPath>
</defs>
</svg>
