<svg width="40" height="41" viewBox="0 0 40 41" fill="none" xmlns="http://www.w3.org/2000/svg">
<g id="Frame 1603">
<rect y="0.640625" width="40" height="40" rx="10" fill="#DAFF86"/>
<g id="Clip path group">
<mask id="mask0_2432_21420" style="mask-type:luminance" maskUnits="userSpaceOnUse" x="6" y="8" width="28" height="25">
<g id="clip0_18_550">
<path id="Vector" d="M33.1866 8.4209H6.81152V32.8653H33.1866V8.4209Z" fill="white"/>
</g>
</mask>
<g mask="url(#mask0_2432_21420)">
<g id="Group">
<path id="Vector_2" d="M26.3665 20.7412L24.7766 23.8957C23.9785 25.4793 22.3571 26.4793 20.5874 26.4793H10.0071C8.24683 26.473 6.81152 27.9146 6.81152 29.6685C6.81152 31.4224 8.24683 32.8641 10.0071 32.8641H31.5935C32.8711 32.8641 33.6282 31.4351 32.909 30.3783L26.3696 20.7412H26.3665Z" fill="#99B3FF"/>
<path id="Vector_3" d="M29.9879 8.4209H11.6317C8.96922 8.4209 6.81152 10.5786 6.81152 13.241V29.6698C6.81152 27.9159 8.24683 26.4743 10.0071 26.4743H20.5905C22.3602 26.4743 23.9816 25.4743 24.7797 23.8907L31.4074 10.7237C31.9405 9.66694 31.174 8.4209 29.9879 8.4209Z" fill="#3366FF"/>
<path id="Vector_4" d="M21.1024 18.3462C22.1749 18.3462 23.0455 17.6679 23.0455 16.8288C23.0455 15.9897 22.1749 15.3115 21.1024 15.3115C20.0298 15.3115 19.1592 15.9897 19.1592 16.8288C19.1592 17.6679 20.0298 18.3462 21.1024 18.3462Z" fill="#DAFF86"/>
</g>
</g>
</g>
</g>
</svg>
