<svg width="33" height="32" viewBox="0 0 33 32" fill="none" xmlns="http://www.w3.org/2000/svg">
<g clip-path="url(#clip0_2538_2424)">
<path d="M32.7041 0H0.454102V32.25H32.7041V0Z" fill="white"/>
<path d="M8.39648 12.143C8.39648 10.7229 9.54771 9.57166 10.9678 9.57166H21.8961C23.3162 9.57166 24.4674 10.7229 24.4674 12.143C24.4674 12.6004 24.0967 12.9712 23.6393 12.9712H16.9601C15.5456 12.9712 14.6615 14.5024 15.3687 15.7274L18.4025 20.982C18.7737 21.6249 18.3097 22.4284 17.5674 22.4284H10.9678C9.54771 22.4284 8.39648 21.2772 8.39648 19.8571V12.143Z" fill="url(#paint0_linear_2538_2424)"/>
<path d="M25.8593 15.5148L17.4196 14.2994C16.7734 14.2064 16.3445 14.9495 16.7482 15.4625L22.0213 22.1627C22.3042 22.5222 22.8608 22.4823 23.0895 22.0861L23.5796 21.2372C24.058 20.4087 23.8463 19.3538 23.0854 18.7739L22.2597 18.1446C22.0234 17.9645 22.2333 17.5943 22.5092 17.7046L23.5151 18.1067C24.3881 18.4558 25.3848 18.1105 25.8548 17.2963L26.3273 16.4782C26.556 16.082 26.3123 15.58 25.8593 15.5148Z" fill="url(#paint1_linear_2538_2424)"/>
</g>
<defs>
<linearGradient id="paint0_linear_2538_2424" x1="17.4054" y1="9.57166" x2="17.4054" y2="22.4284" gradientUnits="userSpaceOnUse">
<stop stop-color="#007AFF"/>
<stop offset="1" stop-color="#00D2E6"/>
</linearGradient>
<linearGradient id="paint1_linear_2538_2424" x1="17.4055" y1="9.57165" x2="17.4055" y2="22.4284" gradientUnits="userSpaceOnUse">
<stop stop-color="#007AFF"/>
<stop offset="1" stop-color="#00D2E6"/>
</linearGradient>
<clipPath id="clip0_2538_2424">
<rect x="0.375" width="32.25" height="32" rx="16" fill="white"/>
</clipPath>
</defs>
</svg>
