<svg width="64" height="64" viewBox="0 0 64 64" fill="none" xmlns="http://www.w3.org/2000/svg">
<rect width="64" height="64" rx="32" fill="#DFEDFF"/>
<g clip-path="url(#clip0_1094_3583)">
<mask id="mask0_1094_3583" style="mask-type:luminance" maskUnits="userSpaceOnUse" x="31" y="29" width="19" height="10">
<path d="M49.9967 29.7011H31.7549V38.8236H49.9967V29.7011Z" fill="white"/>
</mask>
<g mask="url(#mask0_1094_3583)">
<path d="M40.8774 27.3656C42.1629 27.3656 43.2097 28.4124 43.2097 29.6979C43.2097 30.9834 42.1629 32.0302 40.8774 32.0302C39.5919 32.0302 38.5451 30.9834 38.5451 29.6979C38.5451 28.4124 39.5919 27.3656 40.8774 27.3656ZM40.8774 20.5786C35.8404 20.5786 31.7549 24.661 31.7549 29.7011C31.7549 34.7412 35.8373 38.8236 40.8774 38.8236C45.9175 38.8236 49.9999 34.7412 49.9999 29.7011C49.9999 24.661 45.9143 20.5786 40.8774 20.5786Z" fill="url(#paint0_linear_1094_3583)"/>
</g>
<path d="M15.1582 20.5786H28.3631C30.234 20.5786 31.755 22.0995 31.755 23.9737C31.755 25.8478 30.234 27.3687 28.3599 27.3687H15.1582C14.5186 27.3656 14 26.8469 14 26.2074V21.7368C14 21.0972 14.5186 20.5786 15.1582 20.5786Z" fill="#0071FF"/>
<path d="M19.4854 42.26V23.9705C19.4854 22.0963 21.0063 20.5754 22.8804 20.5754C24.7546 20.5754 26.2755 22.0963 26.2755 23.9705V42.26C26.2755 42.8996 25.7569 43.4182 25.1173 43.4182H20.6467C20.0072 43.4182 19.4885 42.8996 19.4885 42.26H19.4854Z" fill="#0071FF"/>
<path d="M31.7549 42.2632V29.7011H38.5419V42.2632C38.5419 42.9028 38.0232 43.4214 37.3837 43.4214H32.9131C32.2735 43.4214 31.7549 42.9028 31.7549 42.2632Z" fill="#0071FF"/>
<mask id="mask1_1094_3583" style="mask-type:luminance" maskUnits="userSpaceOnUse" x="31" y="20" width="19" height="10">
<path d="M31.7582 29.7011L50 29.7011V20.5786H31.7582V29.7011Z" fill="white"/>
</mask>
<g mask="url(#mask1_1094_3583)">
<path d="M40.8774 32.0334C39.5919 32.0334 38.5451 30.9866 38.5451 29.7011C38.5451 28.4156 39.5919 27.3687 40.8774 27.3687C42.1629 27.3687 43.2097 28.4156 43.2097 29.7011C43.2097 30.9866 42.1629 32.0334 40.8774 32.0334ZM40.8774 38.8204C45.9143 38.8204 49.9999 34.738 49.9999 29.6979C49.9999 24.6578 45.9143 20.5786 40.8774 20.5786C35.8404 20.5786 31.7549 24.661 31.7549 29.7011C31.7549 34.7412 35.8373 38.8236 40.8774 38.8236V38.8204Z" fill="#0071FF"/>
</g>
</g>
<defs>
<linearGradient id="paint0_linear_1094_3583" x1="31.7549" y1="29.7011" x2="49.9999" y2="29.7011" gradientUnits="userSpaceOnUse">
<stop offset="0.36" stop-color="white"/>
<stop offset="0.37" stop-color="#EDF5FF"/>
<stop offset="0.39" stop-color="#B6D6FF"/>
<stop offset="0.42" stop-color="#85BBFF"/>
<stop offset="0.44" stop-color="#5CA4FF"/>
<stop offset="0.47" stop-color="#3B91FF"/>
<stop offset="0.49" stop-color="#2183FF"/>
<stop offset="0.52" stop-color="#0E79FF"/>
<stop offset="0.54" stop-color="#0372FF"/>
<stop offset="0.57" stop-color="#0071FF"/>
</linearGradient>
<clipPath id="clip0_1094_3583">
<rect width="36" height="22.8428" fill="white" transform="translate(14 20.5786)"/>
</clipPath>
</defs>
</svg>
