<svg width="32" height="32" viewBox="0 0 32 32" fill="none" xmlns="http://www.w3.org/2000/svg">
<circle cx="16" cy="16" r="16" fill="white"/>
<path d="M24.6476 6.67413L17.1523 12.241L18.5384 8.95662L24.6476 6.67413Z" fill="#E2761B" stroke="#E2761B" stroke-width="0.150659" stroke-linecap="round" stroke-linejoin="round"/>
<path d="M7.34455 6.67413L14.7796 12.2937L13.4613 8.95662L7.34455 6.67413ZM21.9509 19.5781L19.9547 22.6365L24.2259 23.8116L25.4538 19.6459L21.9509 19.5781ZM6.55359 19.6459L7.77393 23.8116L12.0451 22.6365L10.0489 19.5781L6.55359 19.6459Z" fill="#E4761B" stroke="#E4761B" stroke-width="0.150659" stroke-linecap="round" stroke-linejoin="round"/>
<path d="M11.8041 14.4105L10.6139 16.2109L14.8549 16.3992L14.7043 11.8418L11.8041 14.4105ZM20.1883 14.4105L17.2504 11.7891L17.1525 16.3992L21.386 16.2109L20.1883 14.4105ZM12.0452 22.6365L14.5913 21.3936L12.3917 19.6761L12.0452 22.6365ZM17.4011 21.3936L19.9548 22.6365L19.6007 19.6761L17.4011 21.3936Z" fill="#E4761B" stroke="#E4761B" stroke-width="0.150659" stroke-linecap="round" stroke-linejoin="round"/>
<path d="M19.9549 22.6365L17.4012 21.3936L17.6046 23.0583L17.582 23.7589L19.9549 22.6365ZM12.0453 22.6365L14.4182 23.7589L14.4031 23.0583L14.5914 21.3936L12.0453 22.6365Z" fill="#D7C1B3" stroke="#D7C1B3" stroke-width="0.150659" stroke-linecap="round" stroke-linejoin="round"/>
<path d="M14.4556 18.5763L12.3313 17.9511L13.8304 17.2656L14.4556 18.5763ZM17.5366 18.5763L18.1618 17.2656L19.6684 17.9511L17.5366 18.5763Z" fill="#233447" stroke="#233447" stroke-width="0.150659" stroke-linecap="round" stroke-linejoin="round"/>
<path d="M12.0451 22.6365L12.4066 19.5782L10.0488 19.646L12.0451 22.6365ZM19.5931 19.5782L19.9547 22.6365L21.9509 19.646L19.5931 19.5782ZM21.3859 16.2109L17.1524 16.3993L17.5441 18.5763L18.1694 17.2656L19.6759 17.951L21.3859 16.2109ZM12.3313 17.951L13.8379 17.2656L14.4556 18.5763L14.8549 16.3993L10.6138 16.2109L12.3313 17.951Z" fill="#CD6116" stroke="#CD6116" stroke-width="0.150659" stroke-linecap="round" stroke-linejoin="round"/>
<path d="M10.6139 16.2109L12.3917 19.6761L12.3314 17.9511L10.6139 16.2109ZM19.676 17.9511L19.6007 19.6761L21.386 16.2109L19.676 17.9511ZM14.8549 16.3993L14.4557 18.5763L14.9529 21.145L15.0659 17.7627L14.8549 16.3993ZM17.1525 16.3993L16.9491 17.7552L17.0395 21.145L17.5442 18.5763L17.1525 16.3993Z" fill="#E4751F" stroke="#E4751F" stroke-width="0.150659" stroke-linecap="round" stroke-linejoin="round"/>
<path d="M17.5441 18.5763L17.0394 21.145L17.401 21.3936L19.6006 19.6761L19.6759 17.951L17.5441 18.5763ZM12.3313 17.951L12.3916 19.6761L14.5912 21.3936L14.9528 21.145L14.4556 18.5763L12.3313 17.951Z" fill="#F6851B" stroke="#F6851B" stroke-width="0.150659" stroke-linecap="round" stroke-linejoin="round"/>
<path d="M17.582 23.7589L17.6046 23.0583L17.4163 22.8926H14.5764L14.4031 23.0583L14.4182 23.7589L12.0453 22.6365L12.8739 23.3144L14.5538 24.482H17.4389L19.1263 23.3144L19.9549 22.6365L17.582 23.7589Z" fill="#C0AD9E" stroke="#C0AD9E" stroke-width="0.150659" stroke-linecap="round" stroke-linejoin="round"/>
<path d="M17.4009 21.3935L17.0394 21.145H14.9527L14.5912 21.3935L14.4028 23.0583L14.5761 22.8926H17.416L17.6043 23.0583L17.4009 21.3935Z" fill="#161616" stroke="#161616" stroke-width="0.150659" stroke-linecap="round" stroke-linejoin="round"/>
<path d="M24.9641 12.6026L25.6044 9.52912L24.6477 6.67413L17.401 12.0527L20.1882 14.4105L24.128 15.563L25.0018 14.5461L24.6251 14.2749L25.2278 13.725L24.7607 13.3634L25.3634 12.9039L24.9641 12.6026ZM6.39539 9.52912L7.03569 12.6026L6.62891 12.9039L7.23154 13.3634L6.77203 13.725L7.37467 14.2749L6.99802 14.5461L7.86431 15.563L11.804 14.4105L14.5912 12.0527L7.34454 6.67413L6.39539 9.52912Z" fill="#763D16" stroke="#763D16" stroke-width="0.150659" stroke-linecap="round" stroke-linejoin="round"/>
<path d="M24.128 15.5631L20.1882 14.4106L21.386 16.211L19.6007 19.6761L21.9509 19.646H25.4538L24.128 15.5631ZM11.8041 14.4106L7.86432 15.5631L6.55359 19.646H10.0489L12.3916 19.6761L10.6139 16.211L11.8041 14.4106ZM17.1525 16.3993L17.401 12.0528L18.5461 8.95673H13.4613L14.5913 12.0528L14.8549 16.3993L14.9453 17.7703L14.9528 21.1451H17.0395L17.0545 17.7703L17.1525 16.3993Z" fill="#F6851B" stroke="#F6851B" stroke-width="0.150659" stroke-linecap="round" stroke-linejoin="round"/>
</svg>
