<svg width="34" height="34" viewBox="0 0 34 34" fill="none" xmlns="http://www.w3.org/2000/svg">
<g id="Group 31">
<path id="Fill 9" fill-rule="evenodd" clip-rule="evenodd" d="M33.9664 16.9836C33.9664 26.3627 26.3627 33.9642 16.9836 33.9642C7.60597 33.9642 0 26.3627 0 16.9836C0 7.60448 7.60597 0 16.9836 0C26.3627 0 33.9664 7.60448 33.9664 16.9836Z" fill="#14CC61"/>
<path id="Stroke 12" d="M12.8636 8.06287V9.92854L10.0024 9.92802V12.8442H8.13672V8.06287H12.8636Z" fill="#1D1D1B"/>
<path id="Stroke 14" d="M25.9449 8.0896V12.818H24.0792V9.95482L21.165 9.95527V8.0896H25.9449Z" fill="#1D1D1B"/>
<path id="Stroke 16" d="M10.0024 21.153V24.0683L12.8636 24.0686V25.9343H8.13672V21.153H10.0024Z" fill="#1D1D1B"/>
<path id="Stroke 18" d="M25.9449 21.1794V25.9078H21.165V24.0421H24.0792V21.1794H25.9449Z" fill="#1D1D1B"/>
<path id="Stroke 20" d="M25.9355 16.0497V17.9154H8.03101V16.0497H25.9355Z" fill="#1D1D1B"/>
</g>
</svg>
