<svg width="64" height="65" viewBox="0 0 64 65" fill="none" xmlns="http://www.w3.org/2000/svg">
<rect y="0.619263" width="64" height="64" rx="32" fill="#DAFF86"/>
<mask id="mask0_1072_4373" style="mask-type:luminance" maskUnits="userSpaceOnUse" x="17" y="18" width="30" height="29">
<path d="M47 18.7173H17V46.5214H47V18.7173Z" fill="white"/>
</mask>
<g mask="url(#mask0_1072_4373)">
<path d="M39.2426 32.7323L37.4341 36.3204C36.5264 38.1216 34.6821 39.259 32.6692 39.259H20.6347C18.6326 39.2518 17 40.8916 17 42.8866C17 44.8816 18.6326 46.5213 20.6347 46.5213H45.188C46.6412 46.5213 47.5023 44.8959 46.6842 43.6939L39.2461 32.7323H39.2426Z" fill="#99B3FF"/>
<path d="M43.3617 18.7173H22.4826C19.4543 18.7173 17 21.1715 17 24.1999V42.8866C17 40.8917 18.6326 39.2519 20.6347 39.2519H32.6727C34.6857 39.2519 36.53 38.1145 37.4377 36.3132L44.9763 21.3366C45.5827 20.1346 44.7108 18.7173 43.3617 18.7173Z" fill="#3366FF"/>
<path d="M33.2542 30.0091C34.4741 30.0091 35.4644 29.2377 35.4644 28.2832C35.4644 27.3288 34.4741 26.5574 33.2542 26.5574C32.0342 26.5574 31.0439 27.3288 31.0439 28.2832C31.0439 29.2377 32.0342 30.0091 33.2542 30.0091Z" fill="#DAFF86"/>
</g>
</svg>
