<svg width="32" height="32" viewBox="0 0 32 32" fill="none" xmlns="http://www.w3.org/2000/svg">
<circle cx="16" cy="16" r="16" fill="url(#paint0_linear_1_2167)"/>
<path fill-rule="evenodd" clip-rule="evenodd" d="M16 10C15.4477 10 15 10.4477 15 11V15H11C10.4477 15 10 15.4477 10 16C10 16.5523 10.4477 17 11 17H15V21C15 21.5523 15.4477 22 16 22C16.5523 22 17 21.5523 17 21V17H21C21.5523 17 22 16.5523 22 16C22 15.4477 21.5523 15 21 15H17V11C17 10.4477 16.5523 10 16 10Z" fill="white"/>
<defs>
<linearGradient id="paint0_linear_1_2167" x1="16" y1="16" x2="32" y2="32" gradientUnits="userSpaceOnUse">
<stop stop-color="#00DA00"/>
<stop offset="1" stop-color="#00BF00"/>
</linearGradient>
</defs>
</svg>
