<svg width="12" height="12" viewBox="0 0 12 12" fill="none" xmlns="http://www.w3.org/2000/svg">
<path id="ic_link" fill-rule="evenodd" clip-rule="evenodd" d="M10.8 1.84853V4.2C10.8 4.53137 11.0686 4.8 11.4 4.8C11.7314 4.8 12 4.53137 12 4.2V0.6C12 0.268629 11.7314 0 11.4 0H11.2H7.8C7.46863 0 7.2 0.268629 7.2 0.6C7.2 0.931371 7.46863 1.2 7.8 1.2H9.75147L4.17574 6.77574C3.94142 7.01005 3.94142 7.38995 4.17574 7.62426C4.41005 7.85858 4.78995 7.85858 5.02426 7.62426L10.8 1.84853ZM9 6.6V10.2C9 10.5314 8.73137 10.8 8.4 10.8H1.8C1.46863 10.8 1.2 10.5314 1.2 10.2V3.6C1.2 3.26863 1.46863 3 1.8 3H5.4C5.73137 3 6 2.73137 6 2.4C6 2.06863 5.73137 1.8 5.4 1.8H1.8C0.805887 1.8 0 2.60589 0 3.6V10.2C0 11.1941 0.805887 12 1.8 12H8.4C9.39411 12 10.2 11.1941 10.2 10.2V6.6C10.2 6.26863 9.93137 6 9.6 6C9.26863 6 9 6.26863 9 6.6Z" fill="white"/>
</svg>
