<svg width="56" height="14" viewBox="0 0 56 14" fill="none" xmlns="http://www.w3.org/2000/svg">
<path fill-rule="evenodd" clip-rule="evenodd" d="M6.54185 11.7972C6.95006 11.7972 7.34606 11.7466 7.72462 11.6507C7.74555 11.6437 7.76736 11.6367 7.78917 11.6306C8.24971 11.5076 8.72247 11.7763 8.85331 12.2325C8.85505 12.2377 8.85592 12.2429 8.85767 12.249C8.9824 12.7139 8.7059 13.1928 8.24099 13.3175C8.23837 13.3175 8.23575 13.3193 8.23314 13.3193V13.321C7.69409 13.465 7.12713 13.5417 6.54185 13.5417C2.92901 13.5417 0 10.6127 0 6.99986C0 6.42505 0.074141 5.86768 0.212828 5.33736C0.282608 5.03294 0.514626 4.7765 0.837357 4.68928C1.30314 4.56455 1.78113 4.84105 1.90586 5.30596C1.94686 5.46034 1.94424 5.61648 1.90586 5.7604C1.80032 6.15552 1.74449 6.57159 1.74449 6.99986C1.74449 9.64975 3.89197 11.7972 6.54185 11.7972ZM4.84708 0.682175V0.679559C5.387 0.534766 5.9557 0.458008 6.54185 0.458008C8.96408 0.458008 11.0784 1.77423 12.2088 3.72981H12.2071C12.2437 3.79435 12.2725 3.86413 12.2926 3.93827C12.4173 4.40405 12.1408 4.88204 11.6759 5.00678C11.2677 5.11581 10.8499 4.91693 10.6693 4.55321C9.83371 3.1454 8.29768 2.2025 6.54185 2.2025C6.13713 2.2025 5.74375 2.25222 5.36868 2.34729C5.34687 2.35514 5.32419 2.36212 5.30152 2.36823C4.83661 2.49296 4.35775 2.21646 4.23301 1.75155C4.23301 1.74981 4.23214 1.74806 4.23127 1.74544C4.11003 1.28228 4.38479 0.807779 4.84708 0.682175Z" fill="#C1C5CC"/>
<path fill-rule="evenodd" clip-rule="evenodd" d="M13.0898 7.90284C13.0898 7.42136 12.699 7.03147 12.2176 7.03147C11.7361 7.03147 11.3453 7.42223 11.3453 7.90372C11.3453 7.91157 11.3453 7.91941 11.3453 7.92727V8.12701C11.3453 8.48812 11.0522 8.7812 10.6911 8.7812C10.33 8.7812 10.0369 8.48812 10.0369 8.12701V7.0306C10.0369 7.021 10.0369 7.01141 10.0369 7.00268C10.0212 5.08897 8.46515 3.54248 6.54795 3.54248C4.63075 3.54248 3.05896 5.10467 3.05896 7.03147C3.05896 8.95826 4.62115 10.5205 6.54795 10.5205C7.42717 10.5205 8.23138 10.1951 8.84457 9.6578C9.28419 10.1881 9.94884 10.5257 10.6911 10.5257C12.0161 10.5257 13.0898 9.45195 13.0898 8.12701V7.90284ZM6.54795 8.77596C5.58412 8.77596 4.80345 7.9953 4.80345 7.03147C4.80345 6.06764 5.58412 5.28697 6.54795 5.28697C7.51178 5.28697 8.29244 6.06764 8.29244 7.03147C8.29244 7.9953 7.51178 8.77596 6.54795 8.77596Z" fill="#C1C5CC"/>
<path d="M29.7166 8.77583H29.2804C29.0397 8.77583 28.8443 8.58044 28.8443 8.3397V6.48095V5.28684H29.7166C30.198 5.28684 30.5888 4.89607 30.5888 4.41459C30.5888 3.93311 30.198 3.54235 29.7166 3.54235H28.8443V2.6701C28.8443 2.18862 28.4536 1.79785 27.9721 1.79785C27.4906 1.79785 27.0998 2.18862 27.0998 2.6701V8.3397C27.0998 9.5434 28.075 10.5194 29.2787 10.5203H29.7157C30.1972 10.5203 30.5879 10.1296 30.5879 9.64807C30.5879 9.16659 30.1972 8.77583 29.7157 8.77583H29.7166Z" fill="#C1C5CC"/>
<path d="M25.3562 3.54235C25.8379 3.54235 26.2284 3.15183 26.2284 2.6701C26.2284 2.18837 25.8379 1.79785 25.3562 1.79785C24.8745 1.79785 24.4839 2.18837 24.4839 2.6701C24.4839 3.15183 24.8745 3.54235 25.3562 3.54235Z" fill="#C1C5CC"/>
<path d="M25.3562 4.41455C24.8747 4.41455 24.4839 4.80532 24.4839 5.2868V9.64803C24.4839 10.1295 24.8747 10.5203 25.3562 10.5203C25.8377 10.5203 26.2284 10.1295 26.2284 9.64803V5.2868C26.2284 4.80532 25.8377 4.41455 25.3562 4.41455Z" fill="#C1C5CC"/>
<path fill-rule="evenodd" clip-rule="evenodd" d="M20.1227 3.54235C19.4868 3.54235 18.8911 3.71243 18.3782 4.009V2.6701C18.3782 2.18862 17.9875 1.79785 17.506 1.79785C17.0245 1.79785 16.6337 2.18862 16.6337 2.6701V7.03133C16.6337 8.95813 18.1959 10.5203 20.1227 10.5203C22.0495 10.5203 23.6117 8.95813 23.6117 7.03133C23.6117 5.10454 22.0495 3.54235 20.1227 3.54235ZM20.1227 8.77583C19.1589 8.77583 18.3782 7.99517 18.3782 7.03133C18.3782 6.0675 19.1589 5.28684 20.1227 5.28684C21.0865 5.28684 21.8672 6.0675 21.8672 7.03133C21.8672 7.99517 21.0865 8.77583 20.1227 8.77583Z" fill="#C1C5CC"/>
<path d="M11.3462 2.6701C11.3462 2.18862 11.737 1.79785 12.2184 1.79785C12.6999 1.79785 13.0907 2.18862 13.0907 2.6701V7.90358C13.0907 8.38506 12.6999 8.77583 12.2184 8.77583C11.737 8.77583 11.3462 8.38506 11.3462 7.90358V2.6701Z" fill="#C1C5CC"/>
<path d="M14.8343 1.79785C14.3528 1.79785 13.962 2.18862 13.962 2.6701V9.64807C13.962 10.1296 14.3528 10.5203 14.8343 10.5203C15.3158 10.5203 15.7065 10.1296 15.7065 9.64807V2.6701C15.7065 2.18862 15.3158 1.79785 14.8343 1.79785Z" fill="#C1C5CC"/>
<path d="M35.9453 8.75633C34.971 7.78378 34.9675 6.20414 35.9375 5.23507C36.9083 4.26688 38.4905 4.27036 39.4657 5.24292L40.1748 4.53553C38.8089 3.17221 36.5899 3.16872 35.2275 4.52768C33.8659 5.88664 33.8694 8.10127 35.2353 9.46372C36.6012 10.827 38.8202 10.8305 40.1827 9.47157L39.4736 8.76418C38.5027 9.73238 36.9205 9.72889 35.9453 8.75633Z" fill="#C1C5CC"/>
<path d="M43.7868 10.4854C41.8548 10.4854 40.2839 8.9223 40.2839 7.00074C40.2839 5.07918 41.8557 3.51611 43.7868 3.51611C45.718 3.51611 47.2906 5.07918 47.2906 7.00074C47.2906 8.9223 45.7188 10.4854 43.7868 10.4854ZM43.7868 4.51658C42.4087 4.51658 41.287 5.63044 41.287 7.00074C41.287 8.37104 42.4087 9.4849 43.7868 9.4849C45.165 9.4849 46.2867 8.37104 46.2867 7.00074C46.2867 5.63044 45.165 4.51658 43.7868 4.51658Z" fill="#C1C5CC"/>
<path d="M53.8438 3.51318H53.685C53.0108 3.51318 52.4081 3.80713 52.0121 4.26593C51.6161 3.80713 51.0134 3.51318 50.3391 3.51318H50.1804C48.9915 3.51318 48.0242 4.42643 48.0242 5.54814V10.4798H48.9915V5.54814C48.9915 4.9585 49.5244 4.47876 50.1804 4.47876H50.3391C50.995 4.47876 51.528 4.9585 51.528 5.54814V10.4798H52.4953V5.54814C52.4953 4.9585 53.0282 4.47876 53.6842 4.47876H53.8429C54.4989 4.47876 55.0318 4.9585 55.0318 5.54814V10.4798H55.9983V5.54814C55.9983 4.42555 55.0309 3.51318 53.8421 3.51318H53.8438Z" fill="#C1C5CC"/>
<path d="M32.6622 8.9541H32.6596C32.2749 8.9541 31.9635 9.26549 31.9635 9.65015C31.9635 10.0348 32.2749 10.3462 32.6596 10.3462H32.6622C33.0468 10.3462 33.3582 10.0348 33.3582 9.65015C33.3582 9.26549 33.0468 8.9541 32.6622 8.9541Z" fill="#C1C5CC"/>
</svg>
