<svg width="14" height="20" viewBox="0 0 14 20" fill="none" xmlns="http://www.w3.org/2000/svg">
<path d="M9.79258 16.9116L11.8808 14.8234L11.9335 14.7753C11.9827 14.7361 11.9944 14.7244 12.049 14.6917C12.5835 14.3636 13.4354 14.7662 13.4354 15.468C13.4354 15.7063 13.3317 15.9343 13.1681 16.1117L9.52639 19.7543C9.47911 19.7971 9.46917 19.8097 9.41722 19.847C8.92535 20.2044 8.08629 19.9071 7.98281 19.2525C7.97287 19.1898 7.97368 19.1733 7.97186 19.1098L7.97186 4.5403C7.97267 4.51676 7.97368 4.49302 7.97449 4.46949C7.9818 4.40577 7.9818 4.39035 7.99641 4.32866C8.14454 3.71319 9.04101 3.41149 9.5264 3.89685C9.69462 4.06588 9.7837 4.30045 9.79283 4.54053L9.79258 16.9116ZM6.15001 0.89847L6.15001 15.468C6.14819 15.5307 6.1492 15.5471 6.13906 15.6098C6.05079 16.1662 5.36089 16.5516 4.82636 16.2789C4.5301 16.1279 4.34281 15.8079 4.32901 15.468L4.32901 3.09637L2.2408 5.18458L2.18804 5.23267C2.13894 5.27183 2.12717 5.2836 2.07258 5.31627C1.5734 5.62268 0.796246 5.30633 0.697183 4.68257C0.676283 4.54702 0.68724 4.51354 0.689067 4.4689C0.696372 4.40518 0.696371 4.38977 0.711793 4.32808C0.750956 4.16534 0.838211 4.02086 0.953668 3.89627L4.5954 0.253706C4.64268 0.210891 4.65263 0.198309 4.70457 0.160969C5.10635 -0.130826 5.74818 -0.0153651 6.01644 0.421918C6.07833 0.523781 6.12013 0.637417 6.1392 0.755518C6.14915 0.818218 6.14819 0.834955 6.15001 0.89847Z" fill="white"/>
</svg>
