<svg width="99" height="87" viewBox="0 0 99 87" fill="none" xmlns="http://www.w3.org/2000/svg">
<path fill-rule="evenodd" clip-rule="evenodd" d="M20.352 29.6251C20.352 26.9076 20.352 24.192 20.352 24.192C20.352 26.5382 26.5412 28.4403 34.176 28.4403C41.8108 28.4403 48 26.5382 48 24.192C48 24.192 48 26.5936 48 29.6251C46.0613 31.8843 41.088 33.3262 34.176 33.3262C27.264 33.3262 22.0879 31.8843 20.352 29.6251Z" fill="url(#paint0_linear_748_1042)"/>
<mask id="mask0_748_1042" style="mask-type:luminance" maskUnits="userSpaceOnUse" x="20" y="24" width="28" height="10">
<path fill-rule="evenodd" clip-rule="evenodd" d="M20.352 29.6251C20.352 26.9076 20.352 24.192 20.352 24.192C20.352 26.5382 26.5412 28.4403 34.176 28.4403C41.8108 28.4403 48 26.5382 48 24.192C48 24.192 48 26.5936 48 29.6251C46.0613 31.8843 41.088 33.3262 34.176 33.3262C27.264 33.3262 22.0879 31.8843 20.352 29.6251Z" fill="white"/>
</mask>
<g mask="url(#mask0_748_1042)">
<rect x="21.3635" y="25.2116" width="0.674341" height="6.79724" fill="#00DA00" fill-opacity="0.1"/>
<rect x="22.7122" y="25.2116" width="0.674341" height="6.79724" fill="#00DA00" fill-opacity="0.1"/>
<rect x="29.4556" y="26.9109" width="0.674341" height="6.79724" fill="#00DA00" fill-opacity="0.1"/>
<rect x="26.7583" y="26.9109" width="0.674341" height="6.79724" fill="#00DA00" fill-opacity="0.1"/>
<rect x="28.1069" y="26.9109" width="0.674341" height="6.79724" fill="#00DA00" fill-opacity="0.1"/>
<rect x="30.8043" y="26.9109" width="0.674341" height="6.79724" fill="#00DA00" fill-opacity="0.1"/>
<rect x="25.4095" y="26.9109" width="0.674341" height="6.79724" fill="#00DA00" fill-opacity="0.1"/>
<rect x="24.0609" y="26.9109" width="0.674341" height="6.79724" fill="#00DA00" fill-opacity="0.1"/>
<rect x="32.153" y="26.9109" width="0.674341" height="6.79724" fill="#00DA00" fill-opacity="0.1"/>
<rect x="33.5016" y="26.9109" width="0.674341" height="6.79724" fill="#00DA00" fill-opacity="0.1"/>
<rect x="40.2451" y="26.9109" width="0.674341" height="6.79724" fill="#00DA00" fill-opacity="0.1"/>
<rect x="37.5477" y="26.9109" width="0.674341" height="6.79724" fill="#00DA00" fill-opacity="0.1"/>
<rect x="38.8964" y="26.9109" width="0.674341" height="6.79724" fill="#00DA00" fill-opacity="0.1"/>
<rect x="41.5937" y="26.9109" width="0.674341" height="6.79724" fill="#00DA00" fill-opacity="0.1"/>
<rect x="36.199" y="26.9109" width="0.674341" height="6.79724" fill="#00DA00" fill-opacity="0.1"/>
<rect x="46.9884" y="25.2116" width="0.674341" height="6.79724" fill="#00DA00" fill-opacity="0.1"/>
<rect x="44.2911" y="26.9109" width="0.674341" height="6.79724" fill="#00DA00" fill-opacity="0.1"/>
<rect x="45.6398" y="25.2116" width="0.674341" height="6.79724" fill="#00DA00" fill-opacity="0.1"/>
<rect x="42.9424" y="26.9109" width="0.674341" height="6.79724" fill="#00DA00" fill-opacity="0.1"/>
<rect x="34.8503" y="26.9109" width="0.674341" height="6.79724" fill="#00DA00" fill-opacity="0.1"/>
</g>
<path fill-rule="evenodd" clip-rule="evenodd" d="M20.352 34.6304C20.352 31.9128 20.352 29.1972 20.352 29.1972C20.352 31.5435 26.5412 33.4455 34.176 33.4455C41.8108 33.4455 48 31.5435 48 29.1972C48 29.1972 48 31.5988 48 34.6304C46.0613 36.8895 41.088 38.3314 34.176 38.3314C27.264 38.3314 22.0879 36.8895 20.352 34.6304Z" fill="url(#paint1_linear_748_1042)"/>
<mask id="mask1_748_1042" style="mask-type:luminance" maskUnits="userSpaceOnUse" x="20" y="29" width="28" height="10">
<path fill-rule="evenodd" clip-rule="evenodd" d="M20.352 34.6304C20.352 31.9128 20.352 29.1972 20.352 29.1972C20.352 31.5435 26.5412 33.4455 34.176 33.4455C41.8108 33.4455 48 31.5435 48 29.1972C48 29.1972 48 31.5988 48 34.6304C46.0613 36.8895 41.088 38.3314 34.176 38.3314C27.264 38.3314 22.0879 36.8895 20.352 34.6304Z" fill="white"/>
</mask>
<g mask="url(#mask1_748_1042)">
<rect x="21.3635" y="29.7997" width="0.674341" height="6.79724" fill="#00DA00" fill-opacity="0.1"/>
<rect x="22.7122" y="29.7997" width="0.674341" height="6.79724" fill="#00DA00" fill-opacity="0.1"/>
<rect x="29.4556" y="31.4991" width="0.674341" height="6.79724" fill="#00DA00" fill-opacity="0.1"/>
<rect x="26.7583" y="31.4991" width="0.674341" height="6.79724" fill="#00DA00" fill-opacity="0.1"/>
<rect x="28.1069" y="31.4991" width="0.674341" height="6.79724" fill="#00DA00" fill-opacity="0.1"/>
<rect x="30.8043" y="31.4991" width="0.674341" height="6.79724" fill="#00DA00" fill-opacity="0.1"/>
<rect x="25.4095" y="31.4991" width="0.674341" height="6.79724" fill="#00DA00" fill-opacity="0.1"/>
<rect x="24.0609" y="31.4991" width="0.674341" height="6.79724" fill="#00DA00" fill-opacity="0.1"/>
<rect x="32.153" y="31.4991" width="0.674341" height="6.79724" fill="#00DA00" fill-opacity="0.1"/>
<rect x="33.5016" y="31.4991" width="0.674341" height="6.79724" fill="#00DA00" fill-opacity="0.1"/>
<rect x="40.2451" y="31.4991" width="0.674341" height="6.79724" fill="#00DA00" fill-opacity="0.1"/>
<rect x="37.5477" y="31.4991" width="0.674341" height="6.79724" fill="#00DA00" fill-opacity="0.1"/>
<rect x="38.8964" y="31.4991" width="0.674341" height="6.79724" fill="#00DA00" fill-opacity="0.1"/>
<rect x="41.5937" y="31.4991" width="0.674341" height="6.79724" fill="#00DA00" fill-opacity="0.1"/>
<rect x="36.199" y="31.4991" width="0.674341" height="6.79724" fill="#00DA00" fill-opacity="0.1"/>
<rect x="46.9884" y="29.7997" width="0.674341" height="6.79724" fill="#00DA00" fill-opacity="0.1"/>
<rect x="44.2911" y="31.4991" width="0.674341" height="6.79724" fill="#00DA00" fill-opacity="0.1"/>
<rect x="45.6398" y="29.7997" width="0.674341" height="6.79724" fill="#00DA00" fill-opacity="0.1"/>
<rect x="42.9424" y="31.4991" width="0.674341" height="6.79724" fill="#00DA00" fill-opacity="0.1"/>
<rect x="34.8503" y="31.4991" width="0.674341" height="6.79724" fill="#00DA00" fill-opacity="0.1"/>
</g>
<path fill-rule="evenodd" clip-rule="evenodd" d="M20.352 39.6356C20.352 36.9181 20.352 34.2025 20.352 34.2025C20.352 36.5487 26.5412 38.4508 34.176 38.4508C41.8108 38.4508 48 36.5487 48 34.2025C48 34.2025 48 36.6041 48 39.6356C46.0613 41.8948 41.088 43.3367 34.176 43.3367C27.264 43.3367 22.0879 41.8948 20.352 39.6356Z" fill="url(#paint2_linear_748_1042)"/>
<mask id="mask2_748_1042" style="mask-type:luminance" maskUnits="userSpaceOnUse" x="20" y="34" width="28" height="10">
<path fill-rule="evenodd" clip-rule="evenodd" d="M20.352 39.6356C20.352 36.9181 20.352 34.2025 20.352 34.2025C20.352 36.5487 26.5412 38.4508 34.176 38.4508C41.8108 38.4508 48 36.5487 48 34.2025C48 34.2025 48 36.6041 48 39.6356C46.0613 41.8948 41.088 43.3367 34.176 43.3367C27.264 43.3367 22.0879 41.8948 20.352 39.6356Z" fill="white"/>
</mask>
<g mask="url(#mask2_748_1042)">
<rect x="21.3635" y="35.222" width="0.674341" height="6.79724" fill="#00DA00" fill-opacity="0.1"/>
<rect x="22.7122" y="35.222" width="0.674341" height="6.79724" fill="#00DA00" fill-opacity="0.1"/>
<rect x="29.4556" y="36.9214" width="0.674341" height="6.79724" fill="#00DA00" fill-opacity="0.1"/>
<rect x="26.7583" y="36.9214" width="0.674341" height="6.79724" fill="#00DA00" fill-opacity="0.1"/>
<rect x="28.1069" y="36.9214" width="0.674341" height="6.79724" fill="#00DA00" fill-opacity="0.1"/>
<rect x="30.8043" y="36.9214" width="0.674341" height="6.79724" fill="#00DA00" fill-opacity="0.1"/>
<rect x="25.4095" y="36.9214" width="0.674341" height="6.79724" fill="#00DA00" fill-opacity="0.1"/>
<rect x="24.0609" y="36.9214" width="0.674341" height="6.79724" fill="#00DA00" fill-opacity="0.1"/>
<rect x="32.153" y="36.9214" width="0.674341" height="6.79724" fill="#00DA00" fill-opacity="0.1"/>
<rect x="33.5016" y="36.9214" width="0.674341" height="6.79724" fill="#00DA00" fill-opacity="0.1"/>
<rect x="40.2451" y="36.9214" width="0.674341" height="6.79724" fill="#00DA00" fill-opacity="0.1"/>
<rect x="37.5477" y="36.9214" width="0.674341" height="6.79724" fill="#00DA00" fill-opacity="0.1"/>
<rect x="38.8964" y="36.9214" width="0.674341" height="6.79724" fill="#00DA00" fill-opacity="0.1"/>
<rect x="41.5937" y="36.9214" width="0.674341" height="6.79724" fill="#00DA00" fill-opacity="0.1"/>
<rect x="36.199" y="36.9214" width="0.674341" height="6.79724" fill="#00DA00" fill-opacity="0.1"/>
<rect x="46.9884" y="35.222" width="0.674341" height="6.79724" fill="#00DA00" fill-opacity="0.1"/>
<rect x="44.2911" y="36.9214" width="0.674341" height="6.79724" fill="#00DA00" fill-opacity="0.1"/>
<rect x="45.6398" y="35.222" width="0.674341" height="6.79724" fill="#00DA00" fill-opacity="0.1"/>
<rect x="42.9424" y="36.9214" width="0.674341" height="6.79724" fill="#00DA00" fill-opacity="0.1"/>
<rect x="34.8503" y="36.9214" width="0.674341" height="6.79724" fill="#00DA00" fill-opacity="0.1"/>
</g>
<path fill-rule="evenodd" clip-rule="evenodd" d="M20.352 44.6408C20.352 41.9233 20.352 39.2077 20.352 39.2077C20.352 41.554 26.5412 43.456 34.176 43.456C41.8108 43.456 48 41.554 48 39.2077C48 39.2077 48 41.6093 48 44.6408C46.0613 46.9 41.088 48.3419 34.176 48.3419C27.264 48.3419 22.0879 46.9 20.352 44.6408Z" fill="url(#paint3_linear_748_1042)"/>
<mask id="mask3_748_1042" style="mask-type:luminance" maskUnits="userSpaceOnUse" x="20" y="39" width="28" height="10">
<path fill-rule="evenodd" clip-rule="evenodd" d="M20.352 44.6408C20.352 41.9233 20.352 39.2077 20.352 39.2077C20.352 41.554 26.5412 43.456 34.176 43.456C41.8108 43.456 48 41.554 48 39.2077C48 39.2077 48 41.6093 48 44.6408C46.0613 46.9 41.088 48.3419 34.176 48.3419C27.264 48.3419 22.0879 46.9 20.352 44.6408Z" fill="white"/>
</mask>
<g mask="url(#mask3_748_1042)">
<rect x="21.3635" y="40.2273" width="0.674341" height="6.79724" fill="#00DA00" fill-opacity="0.1"/>
<rect x="22.7122" y="40.2273" width="0.674341" height="6.79724" fill="#00DA00" fill-opacity="0.1"/>
<rect x="29.4556" y="41.9266" width="0.674341" height="6.79724" fill="#00DA00" fill-opacity="0.1"/>
<rect x="26.7583" y="41.9266" width="0.674341" height="6.79724" fill="#00DA00" fill-opacity="0.1"/>
<rect x="28.1069" y="41.9266" width="0.674341" height="6.79724" fill="#00DA00" fill-opacity="0.1"/>
<rect x="30.8043" y="41.9266" width="0.674341" height="6.79724" fill="#00DA00" fill-opacity="0.1"/>
<rect x="25.4095" y="41.9266" width="0.674341" height="6.79724" fill="#00DA00" fill-opacity="0.1"/>
<rect x="24.0609" y="41.9266" width="0.674341" height="6.79724" fill="#00DA00" fill-opacity="0.1"/>
<rect x="32.153" y="41.9266" width="0.674341" height="6.79724" fill="#00DA00" fill-opacity="0.1"/>
<rect x="33.5016" y="41.9266" width="0.674341" height="6.79724" fill="#00DA00" fill-opacity="0.1"/>
<rect x="40.2451" y="41.9266" width="0.674341" height="6.79724" fill="#00DA00" fill-opacity="0.1"/>
<rect x="37.5477" y="41.9266" width="0.674341" height="6.79724" fill="#00DA00" fill-opacity="0.1"/>
<rect x="38.8964" y="41.9266" width="0.674341" height="6.79724" fill="#00DA00" fill-opacity="0.1"/>
<rect x="41.5937" y="41.9266" width="0.674341" height="6.79724" fill="#00DA00" fill-opacity="0.1"/>
<rect x="36.199" y="41.9266" width="0.674341" height="6.79724" fill="#00DA00" fill-opacity="0.1"/>
<rect x="46.9884" y="40.2273" width="0.674341" height="6.79724" fill="#00DA00" fill-opacity="0.1"/>
<rect x="44.2911" y="41.9266" width="0.674341" height="6.79724" fill="#00DA00" fill-opacity="0.1"/>
<rect x="45.6398" y="40.2273" width="0.674341" height="6.79724" fill="#00DA00" fill-opacity="0.1"/>
<rect x="42.9424" y="41.9266" width="0.674341" height="6.79724" fill="#00DA00" fill-opacity="0.1"/>
<rect x="34.8503" y="41.9266" width="0.674341" height="6.79724" fill="#00DA00" fill-opacity="0.1"/>
</g>
<g filter="url(#filter0_i_748_1042)">
<ellipse cx="34.0594" cy="4.37279" rx="13.7074" ry="4.37279" fill="#FFE4B7"/>
</g>
<path fill-rule="evenodd" clip-rule="evenodd" d="M20.352 10.0057C20.352 7.29239 20.352 4.58102 20.352 4.58102C20.352 6.92364 26.489 8.82271 34.0594 8.82271C41.6297 8.82271 47.7667 6.92364 47.7667 4.58102C47.7667 4.58102 47.7667 6.9789 47.7667 10.0057C45.8444 12.2614 40.913 13.701 34.0594 13.701C27.2057 13.701 22.0733 12.2614 20.352 10.0057Z" fill="url(#paint4_linear_748_1042)"/>
<mask id="mask4_748_1042" style="mask-type:luminance" maskUnits="userSpaceOnUse" x="20" y="4" width="28" height="10">
<path fill-rule="evenodd" clip-rule="evenodd" d="M20.352 10.0057C20.352 7.29239 20.352 4.58102 20.352 4.58102C20.352 6.92364 26.489 8.82271 34.0594 8.82271C41.6297 8.82271 47.7667 6.92364 47.7667 4.58102C47.7667 4.58102 47.7667 6.9789 47.7667 10.0057C45.8444 12.2614 40.913 13.701 34.0594 13.701C27.2057 13.701 22.0733 12.2614 20.352 10.0057Z" fill="white"/>
</mask>
<g mask="url(#mask4_748_1042)">
<rect x="21.3549" y="5.599" width="0.668651" height="6.78669" fill="#00DA00" fill-opacity="0.1"/>
<rect x="22.6923" y="5.599" width="0.668651" height="6.78669" fill="#00DA00" fill-opacity="0.1"/>
<rect x="29.3788" y="7.29568" width="0.668651" height="6.78669" fill="#00DA00" fill-opacity="0.1"/>
<rect x="26.7041" y="7.29568" width="0.668651" height="6.78669" fill="#00DA00" fill-opacity="0.1"/>
<rect x="28.0415" y="7.29568" width="0.668651" height="6.78669" fill="#00DA00" fill-opacity="0.1"/>
<rect x="30.7161" y="7.29568" width="0.668651" height="6.78669" fill="#00DA00" fill-opacity="0.1"/>
<rect x="25.3669" y="7.29568" width="0.668651" height="6.78669" fill="#00DA00" fill-opacity="0.1"/>
<rect x="24.0296" y="7.29568" width="0.668651" height="6.78669" fill="#00DA00" fill-opacity="0.1"/>
<rect x="32.0534" y="7.29568" width="0.668651" height="6.78669" fill="#00DA00" fill-opacity="0.1"/>
<rect x="33.3907" y="7.29568" width="0.668651" height="6.78669" fill="#00DA00" fill-opacity="0.1"/>
<rect x="40.0772" y="7.29568" width="0.668651" height="6.78669" fill="#00DA00" fill-opacity="0.1"/>
<rect x="37.4026" y="7.29568" width="0.668651" height="6.78669" fill="#00DA00" fill-opacity="0.1"/>
<rect x="38.7399" y="7.29568" width="0.668651" height="6.78669" fill="#00DA00" fill-opacity="0.1"/>
<rect x="41.4145" y="7.29568" width="0.668651" height="6.78669" fill="#00DA00" fill-opacity="0.1"/>
<rect x="36.0653" y="7.29568" width="0.668651" height="6.78669" fill="#00DA00" fill-opacity="0.1"/>
<rect x="46.7637" y="5.599" width="0.668651" height="6.78669" fill="#00DA00" fill-opacity="0.1"/>
<rect x="44.0891" y="7.29568" width="0.668651" height="6.78669" fill="#00DA00" fill-opacity="0.1"/>
<rect x="45.4264" y="5.599" width="0.668651" height="6.78669" fill="#00DA00" fill-opacity="0.1"/>
<rect x="42.7518" y="7.29568" width="0.668651" height="6.78669" fill="#00DA00" fill-opacity="0.1"/>
<rect x="34.728" y="7.29568" width="0.668651" height="6.78669" fill="#00DA00" fill-opacity="0.1"/>
</g>
<path fill-rule="evenodd" clip-rule="evenodd" d="M20.352 15.0032C20.352 12.2898 20.352 9.57846 20.352 9.57846C20.352 11.9211 26.489 13.8201 34.0594 13.8201C41.6297 13.8201 47.7667 11.9211 47.7667 9.57846C47.7667 9.57846 47.7667 11.9763 47.7667 15.0032C45.8444 17.2588 40.913 18.6985 34.0594 18.6985C27.2057 18.6985 22.0733 17.2588 20.352 15.0032Z" fill="url(#paint5_linear_748_1042)"/>
<mask id="mask5_748_1042" style="mask-type:luminance" maskUnits="userSpaceOnUse" x="20" y="9" width="28" height="10">
<path fill-rule="evenodd" clip-rule="evenodd" d="M20.352 15.0032C20.352 12.2898 20.352 9.57846 20.352 9.57846C20.352 11.9211 26.489 13.8201 34.0594 13.8201C41.6297 13.8201 47.7667 11.9211 47.7667 9.57846C47.7667 9.57846 47.7667 11.9763 47.7667 15.0032C45.8444 17.2588 40.913 18.6985 34.0594 18.6985C27.2057 18.6985 22.0733 17.2588 20.352 15.0032Z" fill="white"/>
</mask>
<g mask="url(#mask5_748_1042)">
<rect x="21.3549" y="10.5965" width="0.668651" height="6.78669" fill="#00DA00" fill-opacity="0.1"/>
<rect x="22.6923" y="10.5965" width="0.668651" height="6.78669" fill="#00DA00" fill-opacity="0.1"/>
<rect x="29.3788" y="12.2932" width="0.668651" height="6.78669" fill="#00DA00" fill-opacity="0.1"/>
<rect x="26.7041" y="12.2932" width="0.668651" height="6.78669" fill="#00DA00" fill-opacity="0.1"/>
<rect x="28.0415" y="12.2932" width="0.668651" height="6.78669" fill="#00DA00" fill-opacity="0.1"/>
<rect x="30.7161" y="12.2932" width="0.668651" height="6.78669" fill="#00DA00" fill-opacity="0.1"/>
<rect x="25.3669" y="12.2932" width="0.668651" height="6.78669" fill="#00DA00" fill-opacity="0.1"/>
<rect x="24.0296" y="12.2932" width="0.668651" height="6.78669" fill="#00DA00" fill-opacity="0.1"/>
<rect x="32.0534" y="12.2932" width="0.668651" height="6.78669" fill="#00DA00" fill-opacity="0.1"/>
<rect x="33.3907" y="12.2932" width="0.668651" height="6.78669" fill="#00DA00" fill-opacity="0.1"/>
<rect x="40.0772" y="12.2932" width="0.668651" height="6.78669" fill="#00DA00" fill-opacity="0.1"/>
<rect x="37.4026" y="12.2932" width="0.668651" height="6.78669" fill="#00DA00" fill-opacity="0.1"/>
<rect x="38.7399" y="12.2932" width="0.668651" height="6.78669" fill="#00DA00" fill-opacity="0.1"/>
<rect x="41.4145" y="12.2932" width="0.668651" height="6.78669" fill="#00DA00" fill-opacity="0.1"/>
<rect x="36.0653" y="12.2932" width="0.668651" height="6.78669" fill="#00DA00" fill-opacity="0.1"/>
<rect x="46.7637" y="10.5965" width="0.668651" height="6.78669" fill="#00DA00" fill-opacity="0.1"/>
<rect x="44.0891" y="12.2932" width="0.668651" height="6.78669" fill="#00DA00" fill-opacity="0.1"/>
<rect x="45.4264" y="10.5965" width="0.668651" height="6.78669" fill="#00DA00" fill-opacity="0.1"/>
<rect x="42.7518" y="12.2932" width="0.668651" height="6.78669" fill="#00DA00" fill-opacity="0.1"/>
<rect x="34.728" y="12.2932" width="0.668651" height="6.78669" fill="#00DA00" fill-opacity="0.1"/>
</g>
<path fill-rule="evenodd" clip-rule="evenodd" d="M20.352 20.0007C20.352 17.2874 20.352 14.576 20.352 14.576C20.352 16.9186 26.489 18.8177 34.0594 18.8177C41.6297 18.8177 47.7667 16.9186 47.7667 14.576C47.7667 14.576 47.7667 16.9739 47.7667 20.0007C45.8444 22.2563 40.913 23.696 34.0594 23.696C27.2057 23.696 22.0733 22.2563 20.352 20.0007Z" fill="url(#paint6_linear_748_1042)"/>
<mask id="mask6_748_1042" style="mask-type:luminance" maskUnits="userSpaceOnUse" x="20" y="14" width="28" height="10">
<path fill-rule="evenodd" clip-rule="evenodd" d="M20.352 20.0007C20.352 17.2874 20.352 14.576 20.352 14.576C20.352 16.9186 26.489 18.8177 34.0594 18.8177C41.6297 18.8177 47.7667 16.9186 47.7667 14.576C47.7667 14.576 47.7667 16.9739 47.7667 20.0007C45.8444 22.2563 40.913 23.696 34.0594 23.696C27.2057 23.696 22.0733 22.2563 20.352 20.0007Z" fill="white"/>
</mask>
<g mask="url(#mask6_748_1042)">
<rect x="21.3549" y="15.594" width="0.668651" height="6.78669" fill="#00DA00" fill-opacity="0.1"/>
<rect x="22.6923" y="15.594" width="0.668651" height="6.78669" fill="#00DA00" fill-opacity="0.1"/>
<rect x="29.3788" y="17.2906" width="0.668651" height="6.78669" fill="#00DA00" fill-opacity="0.1"/>
<rect x="26.7041" y="17.2906" width="0.668651" height="6.78669" fill="#00DA00" fill-opacity="0.1"/>
<rect x="28.0415" y="17.2906" width="0.668651" height="6.78669" fill="#00DA00" fill-opacity="0.1"/>
<rect x="30.7161" y="17.2906" width="0.668651" height="6.78669" fill="#00DA00" fill-opacity="0.1"/>
<rect x="25.3669" y="17.2906" width="0.668651" height="6.78669" fill="#00DA00" fill-opacity="0.1"/>
<rect x="24.0296" y="17.2906" width="0.668651" height="6.78669" fill="#00DA00" fill-opacity="0.1"/>
<rect x="32.0534" y="17.2906" width="0.668651" height="6.78669" fill="#00DA00" fill-opacity="0.1"/>
<rect x="33.3907" y="17.2906" width="0.668651" height="6.78669" fill="#00DA00" fill-opacity="0.1"/>
<rect x="40.0772" y="17.2906" width="0.668651" height="6.78669" fill="#00DA00" fill-opacity="0.1"/>
<rect x="37.4026" y="17.2906" width="0.668651" height="6.78669" fill="#00DA00" fill-opacity="0.1"/>
<rect x="38.7399" y="17.2906" width="0.668651" height="6.78669" fill="#00DA00" fill-opacity="0.1"/>
<rect x="41.4145" y="17.2906" width="0.668651" height="6.78669" fill="#00DA00" fill-opacity="0.1"/>
<rect x="36.0653" y="17.2906" width="0.668651" height="6.78669" fill="#00DA00" fill-opacity="0.1"/>
<rect x="46.7637" y="15.594" width="0.668651" height="6.78669" fill="#00DA00" fill-opacity="0.1"/>
<rect x="44.0891" y="17.2906" width="0.668651" height="6.78669" fill="#00DA00" fill-opacity="0.1"/>
<rect x="45.4264" y="15.594" width="0.668651" height="6.78669" fill="#00DA00" fill-opacity="0.1"/>
<rect x="42.7518" y="17.2906" width="0.668651" height="6.78669" fill="#00DA00" fill-opacity="0.1"/>
<rect x="34.728" y="17.2906" width="0.668651" height="6.78669" fill="#00DA00" fill-opacity="0.1"/>
</g>
<path fill-rule="evenodd" clip-rule="evenodd" d="M20.352 24.9981C20.352 22.2848 20.352 19.5734 20.352 19.5734C20.352 21.916 26.489 23.8151 34.0594 23.8151C41.6297 23.8151 47.7667 21.916 47.7667 19.5734C47.7667 19.5734 47.7667 21.9713 47.7667 24.9981C45.8444 27.2537 40.913 28.6934 34.0594 28.6934C27.2057 28.6934 22.0733 27.2537 20.352 24.9981Z" fill="url(#paint7_linear_748_1042)"/>
<mask id="mask7_748_1042" style="mask-type:luminance" maskUnits="userSpaceOnUse" x="20" y="19" width="28" height="10">
<path fill-rule="evenodd" clip-rule="evenodd" d="M20.352 24.9981C20.352 22.2848 20.352 19.5734 20.352 19.5734C20.352 21.916 26.489 23.8151 34.0594 23.8151C41.6297 23.8151 47.7667 21.916 47.7667 19.5734C47.7667 19.5734 47.7667 21.9713 47.7667 24.9981C45.8444 27.2537 40.913 28.6934 34.0594 28.6934C27.2057 28.6934 22.0733 27.2537 20.352 24.9981Z" fill="white"/>
</mask>
<g mask="url(#mask7_748_1042)">
<rect x="21.3549" y="20.5914" width="0.668651" height="6.78669" fill="#00DA00" fill-opacity="0.1"/>
<rect x="22.6923" y="20.5914" width="0.668651" height="6.78669" fill="#00DA00" fill-opacity="0.1"/>
<rect x="29.3788" y="22.2881" width="0.668651" height="6.78669" fill="#00DA00" fill-opacity="0.1"/>
<rect x="26.7041" y="22.2881" width="0.668651" height="6.78669" fill="#00DA00" fill-opacity="0.1"/>
<rect x="28.0415" y="22.2881" width="0.668651" height="6.78669" fill="#00DA00" fill-opacity="0.1"/>
<rect x="30.7161" y="22.2881" width="0.668651" height="6.78669" fill="#00DA00" fill-opacity="0.1"/>
<rect x="25.3669" y="22.2881" width="0.668651" height="6.78669" fill="#00DA00" fill-opacity="0.1"/>
<rect x="24.0296" y="22.2881" width="0.668651" height="6.78669" fill="#00DA00" fill-opacity="0.1"/>
<rect x="32.0534" y="22.2881" width="0.668651" height="6.78669" fill="#00DA00" fill-opacity="0.1"/>
<rect x="33.3907" y="22.2881" width="0.668651" height="6.78669" fill="#00DA00" fill-opacity="0.1"/>
<rect x="40.0772" y="22.2881" width="0.668651" height="6.78669" fill="#00DA00" fill-opacity="0.1"/>
<rect x="37.4026" y="22.2881" width="0.668651" height="6.78669" fill="#00DA00" fill-opacity="0.1"/>
<rect x="38.7399" y="22.2881" width="0.668651" height="6.78669" fill="#00DA00" fill-opacity="0.1"/>
<rect x="41.4145" y="22.2881" width="0.668651" height="6.78669" fill="#00DA00" fill-opacity="0.1"/>
<rect x="36.0653" y="22.2881" width="0.668651" height="6.78669" fill="#00DA00" fill-opacity="0.1"/>
<rect x="46.7637" y="20.5914" width="0.668651" height="6.78669" fill="#00DA00" fill-opacity="0.1"/>
<rect x="44.0891" y="22.2881" width="0.668651" height="6.78669" fill="#00DA00" fill-opacity="0.1"/>
<rect x="45.4264" y="20.5914" width="0.668651" height="6.78669" fill="#00DA00" fill-opacity="0.1"/>
<rect x="42.7518" y="22.2881" width="0.668651" height="6.78669" fill="#00DA00" fill-opacity="0.1"/>
<rect x="34.728" y="22.2881" width="0.668651" height="6.78669" fill="#00DA00" fill-opacity="0.1"/>
</g>
<path fill-rule="evenodd" clip-rule="evenodd" d="M32.678 2.61631L30.3244 2.40629L28.1565 5.36248L32.678 2.61631ZM33.085 2.62465L42.0096 3.50546L33.401 4.71531L30.7333 4.05405L33.085 2.62465ZM30.56 4.22821L32.9509 4.7904L28.4167 5.42763L30.56 4.22821Z" fill="#F39755"/>
<g filter="url(#filter1_i_748_1042)">
<ellipse cx="14.1331" cy="36.984" rx="13.7491" ry="4.032" fill="#FFE4B7"/>
</g>
<path fill-rule="evenodd" clip-rule="evenodd" d="M12.5723 35.2454L10.2177 35.0289L8.05423 38.0167L12.5723 35.2454ZM12.9793 35.2545L21.9075 36.1607L13.299 37.3706L10.6295 36.697L12.9793 35.2545ZM10.4565 36.8729L12.8489 37.4458L8.3147 38.0831L10.4565 36.8729Z" fill="#F39755"/>
<path fill-rule="evenodd" clip-rule="evenodd" d="M0 42.6327C0 39.9034 0 37.176 0 37.176C0 39.5324 6.18921 41.4427 13.824 41.4427C21.4588 41.4427 27.648 39.5324 27.648 37.176C27.648 37.176 27.648 39.588 27.648 42.6327C25.7093 44.9016 20.736 46.3498 13.824 46.3498C6.912 46.3498 1.7359 44.9016 0 42.6327Z" fill="url(#paint8_linear_748_1042)"/>
<mask id="mask8_748_1042" style="mask-type:luminance" maskUnits="userSpaceOnUse" x="0" y="37" width="28" height="10">
<path fill-rule="evenodd" clip-rule="evenodd" d="M0 42.6327C0 39.9034 0 37.176 0 37.176C0 39.5324 6.18921 41.4427 13.824 41.4427C21.4588 41.4427 27.648 39.5324 27.648 37.176C27.648 37.176 27.648 39.588 27.648 42.6327C25.7093 44.9016 20.736 46.3498 13.824 46.3498C6.912 46.3498 1.7359 44.9016 0 42.6327Z" fill="white"/>
</mask>
<g mask="url(#mask8_748_1042)">
<rect x="1.01151" y="38.2" width="0.674341" height="6.82667" fill="#00DA00" fill-opacity="0.1"/>
<rect x="2.3602" y="38.2" width="0.674341" height="6.82667" fill="#00DA00" fill-opacity="0.1"/>
<rect x="9.10364" y="39.9067" width="0.674341" height="6.82667" fill="#00DA00" fill-opacity="0.1"/>
<rect x="6.40628" y="39.9067" width="0.674341" height="6.82667" fill="#00DA00" fill-opacity="0.1"/>
<rect x="7.75497" y="39.9067" width="0.674341" height="6.82667" fill="#00DA00" fill-opacity="0.1"/>
<rect x="10.4523" y="39.9067" width="0.674341" height="6.82667" fill="#00DA00" fill-opacity="0.1"/>
<rect x="5.05756" y="39.9067" width="0.674341" height="6.82667" fill="#00DA00" fill-opacity="0.1"/>
<rect x="3.70886" y="39.9067" width="0.674341" height="6.82667" fill="#00DA00" fill-opacity="0.1"/>
<rect x="11.801" y="39.9067" width="0.674341" height="6.82667" fill="#00DA00" fill-opacity="0.1"/>
<rect x="13.1497" y="39.9067" width="0.674341" height="6.82667" fill="#00DA00" fill-opacity="0.1"/>
<rect x="19.8931" y="39.9067" width="0.674341" height="6.82667" fill="#00DA00" fill-opacity="0.1"/>
<rect x="17.1957" y="39.9067" width="0.674341" height="6.82667" fill="#00DA00" fill-opacity="0.1"/>
<rect x="18.5444" y="39.9067" width="0.674341" height="6.82667" fill="#00DA00" fill-opacity="0.1"/>
<rect x="21.2418" y="39.9067" width="0.674341" height="6.82667" fill="#00DA00" fill-opacity="0.1"/>
<rect x="15.847" y="39.9067" width="0.674341" height="6.82667" fill="#00DA00" fill-opacity="0.1"/>
<rect x="26.6365" y="38.2" width="0.674341" height="6.82667" fill="#00DA00" fill-opacity="0.1"/>
<rect x="23.9391" y="39.9067" width="0.674341" height="6.82667" fill="#00DA00" fill-opacity="0.1"/>
<rect x="25.2878" y="38.2" width="0.674341" height="6.82667" fill="#00DA00" fill-opacity="0.1"/>
<rect x="22.5905" y="39.9067" width="0.674341" height="6.82667" fill="#00DA00" fill-opacity="0.1"/>
<rect x="14.4984" y="39.9067" width="0.674341" height="6.82667" fill="#00DA00" fill-opacity="0.1"/>
</g>
<path fill-rule="evenodd" clip-rule="evenodd" d="M0 47.6247C0 44.8954 0 42.168 0 42.168C0 44.5244 6.18921 46.4347 13.824 46.4347C21.4588 46.4347 27.648 44.5244 27.648 42.168C27.648 42.168 27.648 44.58 27.648 47.6247C25.7093 49.8936 20.736 51.3418 13.824 51.3418C6.912 51.3418 1.7359 49.8936 0 47.6247Z" fill="url(#paint9_linear_748_1042)"/>
<mask id="mask9_748_1042" style="mask-type:luminance" maskUnits="userSpaceOnUse" x="0" y="42" width="28" height="10">
<path fill-rule="evenodd" clip-rule="evenodd" d="M0 47.6247C0 44.8954 0 42.168 0 42.168C0 44.5244 6.18921 46.4347 13.824 46.4347C21.4588 46.4347 27.648 44.5244 27.648 42.168C27.648 42.168 27.648 44.58 27.648 47.6247C25.7093 49.8936 20.736 51.3418 13.824 51.3418C6.912 51.3418 1.7359 49.8936 0 47.6247Z" fill="white"/>
</mask>
<g mask="url(#mask9_748_1042)">
<rect x="1.01151" y="43.192" width="0.674341" height="6.82667" fill="#00DA00" fill-opacity="0.1"/>
<rect x="2.3602" y="43.192" width="0.674341" height="6.82667" fill="#00DA00" fill-opacity="0.1"/>
<rect x="9.10364" y="44.8987" width="0.674341" height="6.82667" fill="#00DA00" fill-opacity="0.1"/>
<rect x="6.40628" y="44.8987" width="0.674341" height="6.82667" fill="#00DA00" fill-opacity="0.1"/>
<rect x="7.75497" y="44.8987" width="0.674341" height="6.82667" fill="#00DA00" fill-opacity="0.1"/>
<rect x="10.4523" y="44.8987" width="0.674341" height="6.82667" fill="#00DA00" fill-opacity="0.1"/>
<rect x="5.05756" y="44.8987" width="0.674341" height="6.82667" fill="#00DA00" fill-opacity="0.1"/>
<rect x="3.70886" y="44.8987" width="0.674341" height="6.82667" fill="#00DA00" fill-opacity="0.1"/>
<rect x="11.801" y="44.8987" width="0.674341" height="6.82667" fill="#00DA00" fill-opacity="0.1"/>
<rect x="13.1497" y="44.8987" width="0.674341" height="6.82667" fill="#00DA00" fill-opacity="0.1"/>
<rect x="19.8931" y="44.8987" width="0.674341" height="6.82667" fill="#00DA00" fill-opacity="0.1"/>
<rect x="17.1957" y="44.8987" width="0.674341" height="6.82667" fill="#00DA00" fill-opacity="0.1"/>
<rect x="18.5444" y="44.8987" width="0.674341" height="6.82667" fill="#00DA00" fill-opacity="0.1"/>
<rect x="21.2418" y="44.8987" width="0.674341" height="6.82667" fill="#00DA00" fill-opacity="0.1"/>
<rect x="15.847" y="44.8987" width="0.674341" height="6.82667" fill="#00DA00" fill-opacity="0.1"/>
<rect x="26.6365" y="43.192" width="0.674341" height="6.82667" fill="#00DA00" fill-opacity="0.1"/>
<rect x="23.9391" y="44.8987" width="0.674341" height="6.82667" fill="#00DA00" fill-opacity="0.1"/>
<rect x="25.2878" y="43.192" width="0.674341" height="6.82667" fill="#00DA00" fill-opacity="0.1"/>
<rect x="22.5905" y="44.8987" width="0.674341" height="6.82667" fill="#00DA00" fill-opacity="0.1"/>
<rect x="14.4984" y="44.8987" width="0.674341" height="6.82667" fill="#00DA00" fill-opacity="0.1"/>
</g>
<g filter="url(#filter2_di_748_1042)">
<ellipse cx="63" cy="43.7249" rx="27.6289" ry="24.1453" transform="rotate(-30 63 43.7249)" fill="url(#paint10_linear_748_1042)"/>
</g>
<path d="M51.8691 38.0311L56.5324 46.1266L78.7052 52.0678L59.4895 33.5764L51.8691 38.0311Z" fill="#00DA00"/>
<path d="M51.2906 38.3645L43.7702 42.7064L55.6325 45.8848L51.2906 38.3645Z" fill="#00DA00"/>
<path d="M51.2699 37.6593L59.0556 33.1091L54.3841 28.644L44.7237 41.4938L51.2699 37.6593Z" fill="#00DA00"/>
<defs>
<filter id="filter0_i_748_1042" x="20.352" y="0" width="27.4147" height="8.74557" filterUnits="userSpaceOnUse" color-interpolation-filters="sRGB">
<feFlood flood-opacity="0" result="BackgroundImageFix"/>
<feBlend mode="normal" in="SourceGraphic" in2="BackgroundImageFix" result="shape"/>
<feColorMatrix in="SourceAlpha" type="matrix" values="0 0 0 0 0 0 0 0 0 0 0 0 0 0 0 0 0 0 127 0" result="hardAlpha"/>
<feOffset dx="-0.5" dy="-1"/>
<feComposite in2="hardAlpha" operator="arithmetic" k2="-1" k3="1"/>
<feColorMatrix type="matrix" values="0 0 0 0 1 0 0 0 0 0.684729 0 0 0 0 0 0 0 0 1 0"/>
<feBlend mode="normal" in2="shape" result="effect1_innerShadow_748_1042"/>
</filter>
<filter id="filter1_i_748_1042" x="0.383972" y="32.952" width="27.4982" height="8.064" filterUnits="userSpaceOnUse" color-interpolation-filters="sRGB">
<feFlood flood-opacity="0" result="BackgroundImageFix"/>
<feBlend mode="normal" in="SourceGraphic" in2="BackgroundImageFix" result="shape"/>
<feColorMatrix in="SourceAlpha" type="matrix" values="0 0 0 0 0 0 0 0 0 0 0 0 0 0 0 0 0 0 127 0" result="hardAlpha"/>
<feOffset dx="-0.5" dy="-1"/>
<feComposite in2="hardAlpha" operator="arithmetic" k2="-1" k3="1"/>
<feColorMatrix type="matrix" values="0 0 0 0 1 0 0 0 0 0.684729 0 0 0 0 0 0 0 0 1 0"/>
<feBlend mode="normal" in2="shape" result="effect1_innerShadow_748_1042"/>
</filter>
<filter id="filter2_di_748_1042" x="6.1937" y="16.6605" width="83.6126" height="70.1288" filterUnits="userSpaceOnUse" color-interpolation-filters="sRGB">
<feFlood flood-opacity="0" result="BackgroundImageFix"/>
<feColorMatrix in="SourceAlpha" type="matrix" values="0 0 0 0 0 0 0 0 0 0 0 0 0 0 0 0 0 0 127 0" result="hardAlpha"/>
<feMorphology radius="10" operator="erode" in="SourceAlpha" result="effect1_dropShadow_748_1042"/>
<feOffset dx="-20" dy="8"/>
<feGaussianBlur stdDeviation="10"/>
<feComposite in2="hardAlpha" operator="out"/>
<feColorMatrix type="matrix" values="0 0 0 0 0 0 0 0 0 0 0 0 0 0 0 0 0 0 0.1 0"/>
<feBlend mode="normal" in2="BackgroundImageFix" result="effect1_dropShadow_748_1042"/>
<feBlend mode="normal" in="SourceGraphic" in2="effect1_dropShadow_748_1042" result="shape"/>
<feColorMatrix in="SourceAlpha" type="matrix" values="0 0 0 0 0 0 0 0 0 0 0 0 0 0 0 0 0 0 127 0" result="hardAlpha"/>
<feOffset dx="-1" dy="-2"/>
<feComposite in2="hardAlpha" operator="arithmetic" k2="-1" k3="1"/>
<feColorMatrix type="matrix" values="0 0 0 0 0.870588 0 0 0 0 0.890196 0 0 0 0 0.921569 0 0 0 1 0"/>
<feBlend mode="normal" in2="shape" result="effect2_innerShadow_748_1042"/>
</filter>
<linearGradient id="paint0_linear_748_1042" x1="20.352" y1="32.0563" x2="40.3123" y2="32.0563" gradientUnits="userSpaceOnUse">
<stop stop-color="#FFEEB9"/>
<stop offset="1" stop-color="#FFC034"/>
</linearGradient>
<linearGradient id="paint1_linear_748_1042" x1="20.352" y1="37.0615" x2="40.3123" y2="37.0615" gradientUnits="userSpaceOnUse">
<stop stop-color="#FFEEB9"/>
<stop offset="1" stop-color="#FFC034"/>
</linearGradient>
<linearGradient id="paint2_linear_748_1042" x1="20.352" y1="42.0668" x2="40.3123" y2="42.0668" gradientUnits="userSpaceOnUse">
<stop stop-color="#FFEEB9"/>
<stop offset="1" stop-color="#FFC034"/>
</linearGradient>
<linearGradient id="paint3_linear_748_1042" x1="20.352" y1="47.072" x2="40.3123" y2="47.072" gradientUnits="userSpaceOnUse">
<stop stop-color="#FFEEB9"/>
<stop offset="1" stop-color="#FFC034"/>
</linearGradient>
<linearGradient id="paint4_linear_748_1042" x1="20.352" y1="12.4331" x2="40.1438" y2="12.4331" gradientUnits="userSpaceOnUse">
<stop stop-color="#FFEEB9"/>
<stop offset="1" stop-color="#FFC034"/>
</linearGradient>
<linearGradient id="paint5_linear_748_1042" x1="20.352" y1="17.4305" x2="40.1438" y2="17.4305" gradientUnits="userSpaceOnUse">
<stop stop-color="#FFEEB9"/>
<stop offset="1" stop-color="#FFC034"/>
</linearGradient>
<linearGradient id="paint6_linear_748_1042" x1="20.352" y1="22.428" x2="40.1438" y2="22.428" gradientUnits="userSpaceOnUse">
<stop stop-color="#FFEEB9"/>
<stop offset="1" stop-color="#FFC034"/>
</linearGradient>
<linearGradient id="paint7_linear_748_1042" x1="20.352" y1="27.4255" x2="40.1438" y2="27.4255" gradientUnits="userSpaceOnUse">
<stop stop-color="#FFEEB9"/>
<stop offset="1" stop-color="#FFC034"/>
</linearGradient>
<linearGradient id="paint8_linear_748_1042" x1="0" y1="45.0743" x2="19.9602" y2="45.0743" gradientUnits="userSpaceOnUse">
<stop stop-color="#FFEEB9"/>
<stop offset="1" stop-color="#FFC034"/>
</linearGradient>
<linearGradient id="paint9_linear_748_1042" x1="0" y1="50.0663" x2="19.9602" y2="50.0663" gradientUnits="userSpaceOnUse">
<stop stop-color="#FFEEB9"/>
<stop offset="1" stop-color="#FFC034"/>
</linearGradient>
<linearGradient id="paint10_linear_748_1042" x1="77.0027" y1="11.7125" x2="58.7542" y2="41.1041" gradientUnits="userSpaceOnUse">
<stop stop-color="#F6F6FB"/>
<stop offset="1" stop-color="white"/>
</linearGradient>
</defs>
</svg>
