<svg width="64" height="25" viewBox="0 0 64 25" fill="none" xmlns="http://www.w3.org/2000/svg">
<path d="M52.7954 8.47369C53.2777 8.90309 53.8262 9.26625 54.4388 9.56317C55.0582 9.85553 55.6914 10.0999 56.3474 10.2895C57.4628 10.6161 58.3314 10.945 58.9462 11.2808C59.5657 11.6097 59.872 12.0253 59.872 12.521C59.872 13.0166 59.6548 13.3546 59.2205 13.5967C58.7908 13.832 58.2422 13.9553 57.5908 13.9553C56.8388 13.9553 56.1348 13.7749 55.4788 13.4232C54.8274 13.0737 54.2514 12.5781 53.7508 11.9523L51.2365 14.4715C52.0457 15.4993 52.9805 16.2485 54.0525 16.7167C55.12 17.1827 56.2925 17.4133 57.5634 17.4133C58.3154 17.4133 59.0742 17.3037 59.8445 17.0844C60.6148 16.8675 61.3097 16.5431 61.9222 16.1137C62.5417 15.6843 63.0377 15.1522 63.424 14.5149C63.8102 13.8731 64 13.1468 64 12.3268C64 11.6371 63.8628 11.0249 63.584 10.4836C63.3051 9.94232 62.9234 9.45582 62.4411 9.02643C61.9588 8.59703 61.4011 8.22017 60.7634 7.89584C60.1302 7.56922 59.4559 7.30656 58.7405 7.09415C57.6457 6.77438 56.8045 6.44777 56.2125 6.12344C55.6274 5.80368 55.3348 5.41996 55.3348 4.98143C55.3348 4.73247 55.4102 4.51092 55.5657 4.30764C55.7165 4.10893 55.9154 3.94448 56.1554 3.82115C56.3954 3.69781 56.656 3.60417 56.9348 3.53793C57.2137 3.46712 57.4788 3.43515 57.728 3.43515C58.4594 3.43515 59.136 3.60873 59.7508 3.94905C60.3702 4.29394 60.9165 4.75988 61.3988 5.35372L63.8834 2.86414C62.2628 0.959272 60.1851 0.00683594 57.6434 0.00683594C56.8548 0.00683594 56.0754 0.121037 55.3051 0.351723C54.5348 0.577841 53.8445 0.909023 53.2365 1.33842C52.6331 1.76781 52.1394 2.29999 51.7668 2.93723C51.3897 3.57904 51.2 4.29622 51.2 5.09791C51.2 5.82423 51.3462 6.46147 51.6342 7.01192C51.9222 7.56465 52.3108 8.058 52.7908 8.48283L52.7954 8.47369Z" fill="white"/>
<path d="M36.9898 24.2814H41.5087L50.2904 0.399658H45.8172L42.2127 10.8353L38.3704 0.399658H33.8401L39.8767 16.7235L36.9898 24.2814Z" fill="white"/>
<path d="M2.59657 14.869C3.40343 15.6478 4.34743 16.2645 5.424 16.7122C6.50514 17.1598 7.65714 17.3814 8.88686 17.3814C10.1166 17.3814 11.28 17.1598 12.3657 16.7122C13.4514 16.2645 14.4 15.6501 15.2069 14.8827C16.0183 14.1084 16.6514 13.1948 17.1131 12.1327C17.5749 11.0775 17.8057 9.93091 17.8057 8.69069C17.8057 7.45047 17.5749 6.32902 17.1131 5.25781C16.6514 4.19117 16.0183 3.273 15.2069 2.49872C14.4 1.73129 13.4514 1.11689 12.3657 0.669218C11.28 0.22155 10.1189 0 8.88686 0C7.65486 0 6.53257 0.22155 5.45143 0.669218C4.37486 1.11689 3.43543 1.74042 2.624 2.52841C1.81714 3.32096 1.17486 4.24371 0.708571 5.30121C0.237714 6.36328 0 7.4893 0 8.69069C0 9.89209 0.230857 11.0478 0.694857 12.1053C1.152 13.1651 1.78971 14.0855 2.59657 14.869ZM4.50286 6.71958C4.752 6.10747 5.09257 5.57301 5.52686 5.1162C5.96114 4.6594 6.46629 4.30081 7.04229 4.045C7.61829 3.78462 8.23543 3.659 8.88686 3.659C9.53829 3.659 10.1554 3.7869 10.736 4.045C11.312 4.29852 11.8171 4.65711 12.2514 5.1162C12.6811 5.57301 13.0263 6.10747 13.2754 6.71958C13.5246 7.32713 13.648 7.98265 13.648 8.69069C13.648 9.39874 13.5246 10.0543 13.2754 10.6618C13.0263 11.2739 12.6811 11.8084 12.2514 12.2652C11.8171 12.722 11.312 13.0806 10.736 13.3364C10.1554 13.5968 9.54286 13.7224 8.88686 13.7224C8.23086 13.7224 7.61829 13.5945 7.04229 13.3364C6.46629 13.0829 5.96114 12.7243 5.52686 12.2652C5.09257 11.8084 4.752 11.2739 4.50286 10.6618C4.25372 10.0543 4.12571 9.39417 4.12571 8.69069C4.12571 7.98721 4.25372 7.32713 4.50286 6.71958Z" fill="white"/>
<path d="M17.5588 16.9519H32.3063V13.2655H24.3406L32.624 0.399658H18.3383V4.08835H25.6686L17.5588 16.9519Z" fill="white"/>
</svg>
